<svg width="58" height="62" viewBox="0 0 58 62" fill="none" xmlns="http://www.w3.org/2000/svg">
<path fill-rule="evenodd" clip-rule="evenodd" d="M31.7188 3.2069C31.7188 2.35637 31.4323 1.54069 30.9225 0.939278C30.4126 0.337868 29.7211 0 29 0C28.2789 0 27.5874 0.337868 27.0775 0.939278C26.5677 1.54069 26.2812 2.35637 26.2812 3.2069V8.55172H22.7142C21.6085 8.55172 20.5247 8.89379 19.564 9.53517L14.895 12.6865C14.757 12.7796 14.6007 12.8282 14.4418 12.8276H6.34349C5.62242 12.8276 4.93089 13.1655 4.42102 13.7669C3.91115 14.3683 3.6247 15.184 3.6247 16.0345C3.6247 16.885 3.91115 17.7007 4.42102 18.3021C4.93089 18.9035 5.62242 19.2414 6.34349 19.2414H7.895L0.238914 39.3037C0.012777 39.8973 -0.0549319 40.5579 0.0447798 41.1979C0.144491 41.8379 0.406905 42.427 0.797171 42.8869L2.71844 40.6207L0.797171 42.8869V42.8912L0.804421 42.8997L0.811671 42.9083L0.833421 42.9339L0.891422 42.9981L1.05455 43.1691C1.81694 43.9228 2.65155 44.5686 3.54133 45.0932C5.82404 46.406 8.33541 47.0708 10.8748 47.0345C14.0648 47.0345 16.5154 46.0938 18.2082 45.0932C19.098 44.5686 19.9326 43.9228 20.695 43.1691L20.8582 42.9981L20.9162 42.9339L20.9379 42.9083L20.9452 42.8997L20.9488 42.8912L19.0311 40.6207L20.9524 42.8869C21.3427 42.427 21.6051 41.8379 21.7048 41.1979C21.8045 40.5579 21.7368 39.8973 21.5107 39.3037L13.8546 19.2414H14.4418C15.5475 19.2414 16.6314 18.8993 17.592 18.2579L22.2647 15.1066C22.4015 15.0143 22.5565 14.9656 22.7142 14.9655H26.2812V55.5862H17.2186C16.4975 55.5862 15.806 55.9241 15.2961 56.5255C14.7863 57.1269 14.4998 57.9426 14.4998 58.7931C14.4998 59.6436 14.7863 60.4593 15.2961 61.0607C15.806 61.6621 16.4975 62 17.2186 62H40.7814C41.5025 62 42.194 61.6621 42.7039 61.0607C43.2137 60.4593 43.5002 59.6436 43.5002 58.7931C43.5002 57.9426 43.2137 57.1269 42.7039 56.5255C42.194 55.9241 41.5025 55.5862 40.7814 55.5862H31.7188V14.9655H35.2858C35.4435 14.9656 35.5985 15.0143 35.7353 15.1066L40.4116 18.2537C41.3686 18.9036 42.4525 19.2414 43.5582 19.2414H44.1454L36.4893 39.3037C36.2632 39.8973 36.1955 40.5579 36.2952 41.1979C36.3949 41.8379 36.6573 42.427 37.0476 42.8869L38.9689 40.6207L37.0476 42.8869V42.8912L37.0548 42.8997L37.0621 42.9083L37.0838 42.9339L37.1418 42.9981L37.305 43.1691C38.0674 43.9227 38.902 44.5685 39.7918 45.0932C42.0745 46.406 44.5858 47.0708 47.1252 47.0345C50.3153 47.0345 52.7658 46.0938 54.4587 45.0932C55.3485 44.5687 56.1831 43.9229 56.9454 43.1691L57.1086 42.9981L57.1448 42.9553L57.1666 42.9339L57.1883 42.9083L57.1956 42.8997L57.1992 42.8912L55.2816 40.6207L57.2028 42.8869C57.5931 42.427 57.8555 41.8379 57.9552 41.1979C58.0549 40.5579 57.9872 39.8973 57.7611 39.3037L50.1086 19.2414H51.6565C52.3776 19.2414 53.0691 18.9035 53.579 18.3021C54.0889 17.7007 54.3753 16.885 54.3753 16.0345C54.3753 15.184 54.0889 14.3683 53.579 13.7669C53.0691 13.1655 52.3776 12.8276 51.6565 12.8276H43.5582C43.4005 12.8275 43.2455 12.7788 43.1087 12.6865L38.4324 9.53945C37.4753 8.89363 36.3921 8.5532 35.2894 8.55172H31.7188V3.2069ZM6.14411 39.4534C7.17725 40.0306 8.74689 40.6207 10.8748 40.6207C13.0027 40.6207 14.5723 40.0306 15.6055 39.4534L10.8748 27.0534L6.14411 39.4534ZM42.3945 39.4534C43.4277 40.0306 44.9973 40.6207 47.1252 40.6207C49.2531 40.6207 50.8228 40.0306 51.8559 39.4534L47.1252 27.0534L42.3945 39.4534Z" fill="#99811D"/>
</svg>
