<svg width="62" height="62" viewBox="0 0 62 62" fill="none" xmlns="http://www.w3.org/2000/svg">
<path d="M59.036 0H35.3236C33.6953 0 31.415 0.944543 30.2649 2.09459L0.865558 31.494C0.311211 32.0509 0 32.8047 0 33.5905C0 34.3764 0.311211 35.1302 0.865558 35.6871L26.3129 61.1344C26.8698 61.6888 27.6236 62 28.4095 62C29.1953 62 29.9491 61.6888 30.506 61.1344L59.9054 31.7351C61.0594 30.5811 62 28.3047 62 26.6764V2.96405C61.9969 2.17889 61.6836 1.42679 61.1284 0.871598C60.5732 0.316407 59.8211 0.00312192 59.036 0V0ZM44.2157 23.7124C43.437 23.7121 42.6659 23.5585 41.9465 23.2602C41.2272 22.962 40.5736 22.5249 40.0231 21.9741C39.4726 21.4233 39.036 20.7694 38.7383 20.0498C38.4405 19.3302 38.2874 18.5591 38.2876 17.7803C38.2879 17.0016 38.4415 16.2305 38.7398 15.5111C39.038 14.7918 39.4751 14.1382 40.0259 13.5877C40.5767 13.0372 41.2306 12.6006 41.9502 12.3029C42.6698 12.0051 43.4409 11.852 44.2197 11.8522C45.7924 11.8528 47.3006 12.478 48.4123 13.5905C49.524 14.703 50.1483 16.2115 50.1478 17.7843C50.1472 19.357 49.522 20.8652 48.4095 21.9769C47.297 23.0886 45.7885 23.7129 44.2157 23.7124Z" fill="#99811D"/>
</svg>
