<svg width="50" height="62" viewBox="0 0 50 62" fill="none" xmlns="http://www.w3.org/2000/svg">
<path d="M48.9927 7.94457L26.0272 0.141506C25.7501 0.0471687 25.3783 0 25.0066 0C24.6349 0 24.2632 0.0471687 23.9861 0.141506L1.02054 7.94457C0.459581 8.13325 0 8.78013 0 9.37311V41.8791C0 42.4721 0.385237 43.2538 0.851577 43.6244L24.1483 61.7237C24.3848 61.9057 24.689 62 24.9999 62C25.3107 62 25.6216 61.9057 25.8514 61.7237L49.1481 43.6244C49.6145 43.2605 49.9997 42.4789 49.9997 41.8791V9.37311C50.0132 8.78013 49.5536 8.13999 48.9927 7.94457ZM37.341 19.4538L22.9723 39.177C22.8713 39.3149 22.7391 39.427 22.5864 39.5043C22.4337 39.5816 22.2649 39.6219 22.0937 39.6219C21.9225 39.6219 21.7536 39.5816 21.601 39.5043C21.4483 39.427 21.3161 39.3149 21.2151 39.177L12.6723 27.4522C12.4154 27.0951 12.6723 26.5965 13.1116 26.5965H16.8423C17.187 26.5965 17.5181 26.7649 17.7209 27.0412L22.0937 33.0384L32.2923 19.036C32.4951 18.7597 32.8195 18.5912 33.1709 18.5912H36.9017C37.341 18.598 37.5978 19.0966 37.341 19.4538Z" fill="#99811D"/>
</svg>
