<svg width="62" height="62" viewBox="0 0 62 62" fill="none" xmlns="http://www.w3.org/2000/svg">
<path d="M41.3332 12.4C41.3332 15.6887 40.2445 18.8427 38.3066 21.1681C36.3687 23.4936 33.7404 24.8 30.9998 24.8C28.2593 24.8 25.6309 23.4936 23.6931 21.1681C21.7552 18.8427 20.6665 15.6887 20.6665 12.4C20.6665 9.11131 21.7552 5.95733 23.6931 3.63188C25.6309 1.30643 28.2593 0 30.9998 0C33.7404 0 36.3687 1.30643 38.3066 3.63188C40.2445 5.95733 41.3332 9.11131 41.3332 12.4Z" fill="#99811D"/>
<path d="M58.5556 20.6666C58.5556 22.859 57.8298 24.9617 56.5379 26.512C55.246 28.0623 53.4938 28.9332 51.6667 28.9332C49.8397 28.9332 48.0875 28.0623 46.7955 26.512C45.5036 24.9617 44.7778 22.859 44.7778 20.6666C44.7778 18.4741 45.5036 16.3715 46.7955 14.8212C48.0875 13.2709 49.8397 12.3999 51.6667 12.3999C53.4938 12.3999 55.246 13.2709 56.5379 14.8212C57.8298 16.3715 58.5556 18.4741 58.5556 20.6666Z" fill="#99811D"/>
<path d="M44.7777 49.6002C44.7777 45.2153 43.3261 41.01 40.7423 37.9094C38.1585 34.8088 34.654 33.0669 30.9999 33.0669C27.3459 33.0669 23.8414 34.8088 21.2576 37.9094C18.6738 41.01 17.2222 45.2153 17.2222 49.6002V62.0002H44.7777V49.6002Z" fill="#99811D"/>
<path d="M17.2221 20.6666C17.2221 22.859 16.4963 24.9617 15.2044 26.512C13.9125 28.0623 12.1603 28.9332 10.3332 28.9332C8.50618 28.9332 6.75396 28.0623 5.46204 26.512C4.17013 24.9617 3.44434 22.859 3.44434 20.6666C3.44434 18.4741 4.17013 16.3715 5.46204 14.8212C6.75396 13.2709 8.50618 12.3999 10.3332 12.3999C12.1603 12.3999 13.9125 13.2709 15.2044 14.8212C16.4963 16.3715 17.2221 18.4741 17.2221 20.6666Z" fill="#99811D"/>
<path d="M51.6668 61.9994V49.5994C51.6718 45.397 50.7826 41.2626 49.0835 37.588C50.6106 37.119 52.2068 37.0748 53.7502 37.4587C55.2937 37.8426 56.7438 38.6444 57.9897 39.8031C59.2357 40.9617 60.2447 42.4466 60.9397 44.1443C61.6347 45.8421 61.9974 47.7079 62.0002 49.5994V61.9994H51.6668Z" fill="#99811D"/>
<path d="M12.9167 37.5876C11.2177 41.2623 10.3285 45.3967 10.3333 49.5991V61.9991H9.15258e-07V49.5991C-0.000662945 47.7062 0.359818 45.8382 1.05382 44.1383C1.74782 42.4385 2.75691 40.9519 4.00377 39.7924C5.25062 38.6329 6.70214 37.8314 8.24707 37.4492C9.792 37.067 11.3893 37.1144 12.9167 37.5876Z" fill="#99811D"/>
</svg>
