<svg width="61" height="62" viewBox="0 0 61 62" fill="none" xmlns="http://www.w3.org/2000/svg">
<path d="M3.66 59.6039C3.66 60.9292 4.75038 62 6.1 62H27.9075V33.8454H3.66V59.6039ZM33.0925 62H54.9C56.2496 62 57.34 60.9292 57.34 59.6039V33.8454H33.0925V62ZM58.56 15.8744H47.3055C48.3425 14.272 48.9525 12.37 48.9525 10.3333C48.9525 4.63502 44.2326 0 38.43 0C35.2733 0 32.4291 1.37778 30.5 3.54927C28.5709 1.37778 25.7268 0 22.57 0C16.7674 0 12.0475 4.63502 12.0475 10.3333C12.0475 12.37 12.6499 14.272 13.6945 15.8744H2.44C1.09037 15.8744 0 16.9452 0 18.2705V28.7536H27.9075V15.8744H33.0925V28.7536H61V18.2705C61 16.9452 59.9096 15.8744 58.56 15.8744ZM27.9075 15.5749H22.57C19.6268 15.5749 17.2325 13.2237 17.2325 10.3333C17.2325 7.443 19.6268 5.09179 22.57 5.09179C25.5133 5.09179 27.9075 7.443 27.9075 10.3333V15.5749ZM38.43 15.5749H33.0925V10.3333C33.0925 7.443 35.4868 5.09179 38.43 5.09179C41.3732 5.09179 43.7675 7.443 43.7675 10.3333C43.7675 13.2237 41.3732 15.5749 38.43 15.5749Z" fill="#99811D"/>
</svg>
