<svg width="177" height="60" viewBox="0 0 177 60" fill="none" xmlns="http://www.w3.org/2000/svg">
<path d="M82.983 50.1933L82.6219 51.6492L82.983 50.1933ZM176.404 47.2407C176.852 46.5438 176.65 45.6157 175.953 45.1678L164.597 37.8675C163.9 37.4195 162.972 37.6212 162.524 38.3181C162.076 39.0149 162.278 39.943 162.975 40.391L173.069 46.8801L166.58 56.9742C166.132 57.6711 166.334 58.5992 167.03 59.0471C167.727 59.4951 168.655 59.2934 169.103 58.5965L176.404 47.2407ZM1.57178 2C0.591909 3.13572 0.592237 3.136 0.592738 3.13643C0.593137 3.13678 0.593812 3.13736 0.594608 3.13805C0.596202 3.13942 0.598487 3.14139 0.601462 3.14395C0.607411 3.14907 0.616117 3.15656 0.627554 3.16638C0.650426 3.18603 0.684219 3.21501 0.728722 3.25307C0.817727 3.32917 0.949576 3.44156 1.12258 3.58811C1.46859 3.88119 1.97925 4.31092 2.64106 4.86026C3.96464 5.95889 5.89314 7.53619 8.31857 9.45583C13.1685 13.2944 20.0101 18.5055 27.9788 23.997C43.8719 34.9494 64.4126 47.1335 82.6219 51.6492L83.344 48.7374C65.6935 44.3603 45.5286 32.4477 29.6811 21.5267C21.7794 16.0814 14.9919 10.9116 10.1804 7.10346C7.77507 5.19974 5.86472 3.63722 4.55713 2.55186C3.90337 2.00921 3.40037 1.58591 3.06161 1.29896C2.89223 1.15549 2.76392 1.04611 2.67836 0.972956C2.63558 0.936378 2.6035 0.908855 2.58231 0.890654C2.57171 0.881553 2.56384 0.874783 2.55872 0.870376C2.55616 0.868173 2.55429 0.866561 2.55311 0.865543C2.55252 0.865035 2.55215 0.864719 2.55186 0.864464C2.55167 0.864298 2.55165 0.864281 1.57178 2ZM82.6219 51.6492C100.375 56.0517 123.638 55.0816 142.335 53.0539C151.709 52.0373 159.984 50.7489 165.916 49.7145C168.883 49.1973 171.265 48.7433 172.907 48.4183C173.728 48.2558 174.365 48.1255 174.797 48.0356C175.013 47.9906 175.178 47.9558 175.289 47.9321C175.345 47.9202 175.387 47.9111 175.416 47.9049C175.43 47.9019 175.441 47.8995 175.449 47.8979C175.452 47.8971 175.455 47.8965 175.457 47.896C175.458 47.8958 175.459 47.8956 175.459 47.8955C175.46 47.8954 175.461 47.8953 175.142 46.4295C174.823 44.9637 174.823 44.9638 174.823 44.9638C174.823 44.9639 174.822 44.964 174.821 44.9641C174.82 44.9645 174.818 44.965 174.814 44.9657C174.808 44.9671 174.798 44.9692 174.785 44.972C174.758 44.9778 174.718 44.9864 174.665 44.9978C174.557 45.0206 174.397 45.0545 174.185 45.0985C173.763 45.1865 173.136 45.3149 172.325 45.4754C170.702 45.7965 168.343 46.2462 165.401 46.7591C159.516 47.7852 151.307 49.0634 142.011 50.0714C123.369 52.0932 100.553 53.005 83.344 48.7374L82.6219 51.6492Z" fill="white"/>
</svg>
