<svg width="173" height="163" viewBox="0 0 173 163" fill="none" xmlns="http://www.w3.org/2000/svg">
<path d="M158.651 60.252L95.9996 63.9384C93.777 64.0694 91.5964 64.6065 89.5639 65.5236L21.5053 96.2438C20.3123 96.7746 19.3357 97.7021 18.7385 98.8717C18.1413 100.041 17.9595 101.382 18.2236 102.67L29.4814 156.351C29.67 157.216 30.0524 158.027 30.5992 158.72C31.146 159.413 31.8427 159.971 32.6361 160.35C33.4294 160.73 34.2983 160.921 35.1763 160.909C36.0542 160.898 36.9178 160.684 37.701 160.283L104.877 126.43L166.908 124.31C167.671 124.289 168.422 124.105 169.109 123.769C169.796 123.433 170.405 122.953 170.895 122.362C171.384 121.77 171.743 121.08 171.948 120.337C172.153 119.595 172.199 118.817 172.083 118.055L163.784 66.6663C163.352 64.0183 161.349 60.1721 158.651 60.252Z" fill="#99811D"/>
<path opacity="0.1" d="M158.651 60.252L95.9996 63.9384C93.777 64.0694 91.5964 64.6065 89.5639 65.5236L21.5053 96.2438C20.3123 96.7746 19.3357 97.7021 18.7385 98.8717C18.1413 100.041 17.9595 101.382 18.2236 102.67L29.4814 156.351C29.67 157.216 30.0524 158.027 30.5992 158.72C31.146 159.413 31.8427 159.971 32.6361 160.35C33.4294 160.73 34.2983 160.921 35.1763 160.909C36.0542 160.898 36.9178 160.684 37.701 160.283L104.877 126.43L166.908 124.31C167.671 124.289 168.422 124.105 169.109 123.769C169.796 123.433 170.405 122.953 170.895 122.362C171.384 121.77 171.743 121.08 171.948 120.337C172.153 119.595 172.199 118.817 172.083 118.055L163.784 66.6663C163.352 64.0183 161.349 60.1721 158.651 60.252Z" fill="#99811D"/>
<path d="M32.8861 25.3175L0.00415039 55.9041L59.012 120.5L91.8939 89.9137L32.8861 25.3175Z" fill="#99811D"/>
<path opacity="0.3" d="M91.8833 89.9154L59.0048 120.501L0 55.902L21.5781 35.8294L32.8846 25.3169L34.7721 27.3751L91.8833 89.9154Z" fill="#FAFAFA"/>
<path d="M33.0977 29.2664L4.08374 56.2551L59.2785 116.677L88.2925 89.6884L33.0977 29.2664Z" stroke="#99811D" stroke-miterlimit="10"/>
<path d="M52.7209 80.1211C56.0489 77.0254 55.6279 71.1018 51.7808 66.8903C47.9336 62.6788 42.1171 61.7742 38.7892 64.8698C35.4612 67.9655 35.8822 73.8891 39.7293 78.1006C43.5765 82.3121 49.393 83.2167 52.7209 80.1211Z" fill="#99811D"/>
<path opacity="0.1" d="M58.6515 94.2839L46.9674 98.3574L21.5779 35.8294L32.8844 25.3169L34.7719 27.3751L58.6515 94.2839Z" fill="#99811D"/>
<path d="M60.9239 5.10423e-05L18.8813 15.3829L48.558 97.9751L90.6006 82.5923L60.9239 5.10423e-05Z" fill="#99811D"/>
<path opacity="0.3" d="M60.9239 5.10423e-05L18.8813 15.3829L48.558 97.9751L90.6006 82.5923L60.9239 5.10423e-05Z" fill="#FAFAFA"/>
<path d="M59.608 3.73045L22.511 17.3038L50.27 94.5589L87.367 80.9855L59.608 3.73045Z" stroke="#99811D" stroke-miterlimit="10"/>
<path d="M58.2209 58.2839C62.476 56.727 64.3569 51.0997 62.422 45.7149C60.4872 40.3301 55.4693 37.2269 51.2142 38.7838C46.9592 40.3407 45.0783 45.968 47.0131 51.3528C48.9479 56.7376 53.9659 59.8407 58.2209 58.2839Z" fill="#99811D"/>
<path d="M159.059 62.4392L97.2591 65.9475C95.0699 66.0741 92.9219 66.603 90.9209 67.5081L23.8608 98.0686C22.6793 98.6065 21.7156 99.536 21.1298 100.703C20.5439 101.87 20.371 103.203 20.6399 104.483L31.8856 158.151C32.0664 159.01 32.4402 159.816 32.9781 160.506C33.5161 161.197 34.2038 161.753 34.9885 162.133C35.7731 162.513 36.6336 162.706 37.5039 162.697C38.3741 162.689 39.2307 162.479 40.0078 162.083L106.185 128.439L167.37 126.491C168.127 126.467 168.87 126.28 169.55 125.943C170.23 125.605 170.831 125.126 171.312 124.535C171.793 123.945 172.144 123.258 172.341 122.519C172.538 121.781 172.576 121.009 172.454 120.255L164.13 68.8597C163.704 66.2055 161.725 62.3655 159.059 62.4392Z" fill="#99811D"/>
<path opacity="0.2" d="M99.7742 75.3539L152.8 72.0546" stroke="black" stroke-width="2" stroke-linecap="round" stroke-linejoin="round"/>
<path opacity="0.2" d="M93.4238 76.7365L103.111 121.637" stroke="black" stroke-width="2" stroke-linecap="round" stroke-linejoin="round"/>
<path opacity="0.2" d="M28.8357 117.275L35.6671 151.811C35.6671 151.811 40.9033 138.103 28.8357 117.275Z" fill="#FAFAFA"/>
<path opacity="0.2" d="M29.7366 117.68C29.9679 118.295 90.4096 92.121 90.4096 92.121C90.5727 98.0549 89.1021 103.918 86.1613 109.059C83.2205 114.201 78.9247 118.418 73.7512 121.244C55.5584 131.535 29.7366 117.68 29.7366 117.68Z" fill="#FAFAFA"/>
<path d="M69.8849 118.694C71.3309 118.694 72.5031 117.511 72.5031 116.052C72.5031 114.593 71.3309 113.41 69.8849 113.41C68.439 113.41 67.2668 114.593 67.2668 116.052C67.2668 117.511 68.439 118.694 69.8849 118.694Z" fill="#99811D"/>
<path opacity="0.2" d="M90.4404 92.121C90.4404 92.121 97.9355 103.5 96.1272 122.897L90.4404 92.121Z" fill="#99811D"/>
<g opacity="0.2">
<path opacity="0.2" d="M25.9436 103.709L27.3379 103.088" stroke="#FAFAFA" stroke-linecap="round" stroke-linejoin="round"/>
<path opacity="0.2" d="M30.2307 101.792L86.6722 76.6198" stroke="#FAFAFA" stroke-linecap="round" stroke-linejoin="round" stroke-dasharray="5.2 5.2"/>
<path opacity="0.2" d="M88.1208 75.9745L89.5151 75.354" stroke="#FAFAFA" stroke-linecap="round" stroke-linejoin="round"/>
</g>
<path opacity="0.2" d="M101.552 85.4486L154.578 82.1493" stroke="black" stroke-width="2" stroke-linecap="round" stroke-linejoin="round"/>
<path opacity="0.2" d="M103.939 98.0316L156.965 94.7384" stroke="black" stroke-width="2" stroke-linecap="round" stroke-linejoin="round"/>
<path d="M148.832 20.5001L135.979 65.665C135.55 67.1754 134.683 68.5216 133.49 69.5302C132.296 70.5388 130.83 71.1634 129.281 71.3237C128.295 71.425 127.299 71.3332 126.347 71.0533L101.743 63.9201C99.7572 63.3416 98.0801 61.9922 97.0791 60.1678C96.0781 58.3435 95.8349 56.193 96.4029 54.1879L109.262 9.04141C109.54 8.04593 110.01 7.11558 110.645 6.3036C111.28 5.49163 112.067 4.81399 112.962 4.30948C113.856 3.80497 114.841 3.48351 115.859 3.36349C116.877 3.24348 117.908 3.32727 118.894 3.61007L143.498 10.7372C144.485 11.0234 145.405 11.5032 146.208 12.1491C147.01 12.7951 147.678 13.5945 148.173 14.5014C148.669 15.4084 148.982 16.4052 149.095 17.4345C149.208 18.4639 149.119 19.5056 148.832 20.5001Z" fill="#501F6A"/>
<path d="M148.832 20.5001L135.979 65.665C135.55 67.1754 134.683 68.5216 133.49 69.5302C132.296 70.5388 130.83 71.1634 129.281 71.3237C128.295 71.425 127.299 71.3332 126.347 71.0533L101.743 63.9201C99.7572 63.3416 98.0801 61.9922 97.0791 60.1678C96.0781 58.3435 95.8349 56.193 96.4029 54.1879L109.262 9.04141C109.54 8.04593 110.01 7.11558 110.645 6.3036C111.28 5.49163 112.067 4.81399 112.962 4.30948C113.856 3.80497 114.841 3.48351 115.859 3.36349C116.877 3.24348 117.908 3.32727 118.894 3.61007L143.498 10.7372C144.485 11.0234 145.405 11.5032 146.208 12.1491C147.01 12.7951 147.678 13.5945 148.173 14.5014C148.669 15.4084 148.982 16.4052 149.095 17.4345C149.208 18.4639 149.119 19.5056 148.832 20.5001Z" fill="#501F6A"/>
<path d="M146.693 21.0408L133.84 66.175C133.514 67.3236 132.932 68.3819 132.14 69.2698C131.348 70.1577 130.365 70.8517 129.267 71.2992C128.281 71.4005 127.285 71.3087 126.333 71.0288L101.729 63.8956C99.7432 63.3171 98.0662 61.9677 97.0652 60.1433C96.0642 58.319 95.821 56.1685 96.3889 54.1634L109.248 9.01693C109.574 7.86915 110.156 6.81159 110.948 5.92472C111.741 5.03785 112.723 4.34502 113.821 3.89893C114.807 3.80374 115.802 3.89543 116.755 4.16927L141.353 11.2964C142.338 11.582 143.258 12.0608 144.059 12.7052C144.861 13.3496 145.528 14.1471 146.024 15.052C146.52 15.957 146.834 16.9517 146.949 17.9793C147.064 19.0069 146.977 20.0472 146.693 21.0408Z" fill="#501F6A"/>
<path opacity="0.3" d="M146.693 21.0408L133.84 66.175C133.514 67.3236 132.932 68.3819 132.14 69.2698C131.348 70.1577 130.365 70.8517 129.267 71.2992C128.281 71.4005 127.285 71.3087 126.333 71.0288L101.729 63.8956C99.7432 63.3171 98.0662 61.9677 97.0652 60.1433C96.0642 58.319 95.821 56.1685 96.3889 54.1634L109.248 9.01693C109.574 7.86915 110.156 6.81159 110.948 5.92472C111.741 5.03785 112.723 4.34502 113.821 3.89893C114.807 3.80374 115.802 3.89543 116.755 4.16927L141.353 11.2964C142.338 11.582 143.258 12.0608 144.059 12.7052C144.861 13.3496 145.528 14.1471 146.024 15.052C146.52 15.957 146.834 16.9517 146.949 17.9793C147.064 19.0069 146.977 20.0472 146.693 21.0408Z" fill="#99811D"/>
<path d="M112.125 24.8729L109.494 24.1246L100.023 58.0335L102.655 58.7819L112.125 24.8729Z" fill="#99811D"/>
<path d="M106.429 59.8589L103.799 59.097L113.266 25.2003L115.897 25.9622L106.429 59.8589Z" fill="#99811D"/>
<path d="M110.253 60.971L107.629 60.2091L117.091 26.3062L119.721 27.0681L110.253 60.971Z" fill="#99811D"/>
<path opacity="0.5" d="M135.04 31.5178L132.409 30.7695L122.938 64.6784L125.57 65.4268L135.04 31.5178Z" fill="#501F6A"/>
<path d="M134.699 21.9315L133.39 26.5333L131.831 26.091C131.076 25.8748 130.437 25.3654 130.053 24.6744C129.67 23.9834 129.573 23.1671 129.785 22.4045L130.638 19.3325L133.785 20.2418C133.956 20.2912 134.115 20.3742 134.254 20.4862C134.392 20.5981 134.507 20.7367 134.592 20.8939C134.677 21.0511 134.73 21.2238 134.749 21.4019C134.767 21.58 134.75 21.76 134.699 21.9315Z" fill="#99811D"/>
<path d="M133.95 19.6767L130.802 18.7674L131.746 15.4004C131.851 15.0227 132.029 14.6696 132.27 14.3614C132.511 14.0532 132.809 13.7959 133.149 13.6041C133.488 13.4124 133.861 13.2901 134.247 13.244C134.634 13.198 135.025 13.2293 135.399 13.336L137.019 13.7968L135.606 18.7551C135.559 18.9265 135.479 19.0867 135.37 19.2263C135.261 19.366 135.125 19.4821 134.971 19.568C134.816 19.6539 134.646 19.7077 134.471 19.7264C134.296 19.7451 134.119 19.7282 133.95 19.6767Z" fill="#99811D"/>
<path d="M136.933 21.1822L140.099 22.0976L139.259 25.1143C139.155 25.4929 138.978 25.847 138.738 26.1561C138.497 26.4652 138.199 26.7231 137.859 26.9151C137.519 27.107 137.145 27.2292 136.759 27.2744C136.372 27.3197 135.98 27.2872 135.606 27.1787L133.962 26.7118L135.271 22.116C135.318 21.9437 135.398 21.7826 135.508 21.642C135.617 21.5014 135.753 21.3843 135.908 21.2973C136.063 21.2104 136.233 21.1554 136.409 21.1356C136.585 21.1159 136.763 21.1317 136.933 21.1822Z" fill="#99811D"/>
<path d="M141.219 18.0915L140.263 21.5076L137.097 20.5922C136.758 20.4922 136.472 20.2612 136.301 19.9493C136.13 19.6375 136.088 19.2701 136.184 18.9271L137.596 13.9689L139.173 14.4174C139.547 14.5231 139.896 14.7019 140.201 14.9438C140.506 15.1856 140.76 15.4857 140.95 15.8269C141.14 16.1681 141.262 16.5437 141.308 16.9322C141.354 17.3208 141.324 17.7147 141.219 18.0915Z" fill="#99811D"/>
</svg>
