<svg width="54" height="47" viewBox="0 0 54 47" fill="none" xmlns="http://www.w3.org/2000/svg">
<path d="M27.9643 21.7857C27.9643 22.3281 27.5424 22.75 27 22.75C25.4029 22.75 24.1071 24.0458 24.1071 25.6429C24.1071 26.1853 23.6853 26.6071 23.1429 26.6071C22.6004 26.6071 22.1786 26.1853 22.1786 25.6429C22.1786 22.9911 24.3482 20.8214 27 20.8214C27.5424 20.8214 27.9643 21.2433 27.9643 21.7857ZM34.7143 25.7031C34.7143 21.4542 31.2489 17.9888 27 17.9888C22.7511 17.9888 19.2857 21.4542 19.2857 25.7031C19.2857 29.952 22.7511 33.4174 27 33.4174C31.2489 33.4174 34.7143 29.952 34.7143 25.7031ZM3.85714 43V39.1429H50.1429V43H3.85714ZM38.5714 25.7031C38.5714 32.0915 33.3884 37.2746 27 37.2746C20.6116 37.2746 15.4286 32.0915 15.4286 25.7031C15.4286 19.3147 20.6116 14.1317 27 14.1317C33.3884 14.1317 38.5714 19.3147 38.5714 25.7031ZM7.71429 6.35714V2.5H19.2857V6.35714H7.71429ZM3.85714 12.1429V8.28571H23.2634L25.192 4.42857H50.1429V8.58705V12.1429H3.85714ZM54 4.42857C54 2.28906 52.2824 0.571426 50.1429 0.571426H3.85714C1.71763 0.571426 0 2.28906 0 4.42857V43C0 45.1395 1.71763 46.8571 3.85714 46.8571H50.1429C52.2824 46.8571 54 45.1395 54 43V4.42857Z" fill="#99811D"/>
</svg>
