<svg width="16" height="16" viewBox="0 0 16 16" fill="none" xmlns="http://www.w3.org/2000/svg">
<path d="M11.0965 5.17501C11.0965 5.09644 11.0323 5.03215 10.9537 5.03215L9.77511 5.03751L8.00011 7.15358L6.2269 5.03929L5.04654 5.03394C4.96797 5.03394 4.90369 5.09644 4.90369 5.17679C4.90369 5.21072 4.91619 5.24286 4.93761 5.26965L7.26083 8.03751L4.93761 10.8036C4.91604 10.8298 4.90406 10.8625 4.90369 10.8964C4.90369 10.975 4.96797 11.0393 5.04654 11.0393L6.2269 11.0339L8.00011 8.91787L9.77332 11.0321L10.9519 11.0375C11.0305 11.0375 11.0948 10.975 11.0948 10.8946C11.0948 10.8607 11.0823 10.8286 11.0608 10.8018L8.74118 8.03572L11.0644 5.26786C11.0858 5.24286 11.0965 5.20894 11.0965 5.17501Z" fill="white"/>
<path d="M8 0C3.58214 0 0 3.58214 0 8C0 12.4179 3.58214 16 8 16C12.4179 16 16 12.4179 16 8C16 3.58214 12.4179 0 8 0ZM8 14.6429C4.33214 14.6429 1.35714 11.6679 1.35714 8C1.35714 4.33214 4.33214 1.35714 8 1.35714C11.6679 1.35714 14.6429 4.33214 14.6429 8C14.6429 11.6679 11.6679 14.6429 8 14.6429Z" fill="white"/>
</svg>
