<svg width="30" height="21" viewBox="0 0 30 21" fill="none" xmlns="http://www.w3.org/2000/svg">
<path d="M21.3268 0L5.81314 3.96976L0 13.7997L8.97014 20.6887L24.209 16.8427L30 6.93959L21.3267 0H21.3268ZM15.6622 6.63193L10.0497 4.5713L18.1148 2.50753L15.6622 6.63193ZM21.2214 2.87443L25.5766 6.35893L18.7808 6.97895L21.2214 2.87439V2.87443ZM8.09128 5.73759L14.742 8.17942L12.35 12.202L3.91932 12.7923L8.09128 5.73759ZM8.99761 17.8399L4.32724 14.2531L11.426 13.756L8.99761 17.8399ZM14.5126 14.1566L19.9916 16.2269L12.0967 18.2194L14.5126 14.1566ZM21.9342 15.054L15.4385 12.5996L17.8369 8.5662L26.1727 7.80569L21.9342 15.054Z" fill="#4E1D69" fill-opacity="0.8"/>
</svg>
