<svg width="58" height="54" viewBox="0 0 58 54" fill="none" xmlns="http://www.w3.org/2000/svg">
<path d="M27 26.7143C27 30.9632 23.5346 34.4286 19.2857 34.4286C15.0368 34.4286 11.5714 30.9632 11.5714 26.7143C11.5714 22.4654 15.0368 19 19.2857 19C23.5346 19 27 22.4654 27 26.7143ZM50.1429 42.1429C50.1429 44.2522 48.4252 46 46.2857 46C44.1763 46 42.4286 44.2824 42.4286 42.1429C42.4286 40.0335 44.1763 38.2857 46.2857 38.2857C48.3951 38.2857 50.1429 40.0335 50.1429 42.1429ZM50.1429 11.2857C50.1429 13.3951 48.4252 15.1429 46.2857 15.1429C44.1763 15.1429 42.4286 13.4252 42.4286 11.2857C42.4286 9.17634 44.1763 7.42857 46.2857 7.42857C48.3951 7.42857 50.1429 9.17634 50.1429 11.2857ZM38.5714 23.9721C38.5714 23.5502 38.2701 23.1585 37.8482 23.0681L33.2679 22.375C32.9967 21.5312 32.635 20.7176 32.2433 19.904C33.0871 18.7288 33.9911 17.644 34.865 16.4688C34.9855 16.2879 35.0759 16.1071 35.0759 15.8962C35.0759 15.0525 31.5201 11.798 30.7366 11.0748C30.5558 10.9241 30.3449 10.8337 30.1038 10.8337C29.8929 10.8337 29.6819 10.894 29.5011 11.0446L25.9453 13.7266C25.2221 13.365 24.4688 13.0335 23.6853 12.7924L22.9922 8.18192C22.9319 7.76004 22.51 7.42857 22.0882 7.42857H16.4833C16.0614 7.42857 15.6998 7.72991 15.5792 8.15179C15.1875 9.62835 15.0368 11.2857 14.8862 12.7924C14.0725 13.0636 13.3192 13.365 12.5658 13.7567L9.10045 11.0446C8.91964 10.9241 8.70871 10.8337 8.46763 10.8337C7.59375 10.8337 4.21875 14.4799 3.61607 15.2935C3.4654 15.4743 3.40513 15.6853 3.40513 15.8962C3.40513 16.1071 3.49554 16.3181 3.61607 16.4989C4.58036 17.644 5.48438 18.7589 6.32813 19.9643C5.93638 20.7176 5.60491 21.471 5.36384 22.2545L0.69308 22.9777C0.301339 23.0379 0 23.49 0 23.8817V29.4565C0 29.8783 0.301339 30.2701 0.723214 30.3304L5.30357 31.0536C5.57478 31.8973 5.93638 32.7109 6.35826 33.5246C5.48438 34.6998 4.58036 35.8147 3.70647 36.9598C3.58594 37.1406 3.49554 37.3214 3.49554 37.5324C3.49554 38.4062 7.05134 41.6306 7.83482 42.3538C8.01562 42.5045 8.22656 42.5949 8.46763 42.5949C8.67857 42.5949 8.91964 42.5346 9.07031 42.3839L12.6261 39.702C13.3493 40.0636 14.1027 40.3951 14.8862 40.6362L15.5792 45.2467C15.6395 45.6685 16.0614 46 16.4833 46H22.0882C22.51 46 22.8717 45.6987 22.9922 45.2768C23.3839 43.8002 23.5346 42.1429 23.6853 40.606C24.4989 40.365 25.2522 40.0636 26.0056 39.6719L29.471 42.3839C29.6518 42.5045 29.8627 42.5949 30.1038 42.5949C30.9777 42.5949 34.3527 38.9185 34.9554 38.1049C35.106 37.9542 35.1663 37.7433 35.1663 37.5324C35.1663 37.2913 35.0759 37.1105 34.9554 36.9297C33.9911 35.7846 33.0871 34.6696 32.2433 33.4643C32.635 32.7109 32.9665 31.9576 33.2076 31.1741L37.8784 30.4509C38.2701 30.3906 38.5714 29.9386 38.5714 29.5469V23.9721ZM57.8571 40.0335C57.8571 39.5815 53.9699 39.1596 53.3672 39.0993C53.1261 38.5569 52.8248 38.0145 52.4632 37.5324C52.7344 36.9297 54 33.9163 54 33.3739C54 33.3136 53.9699 33.2232 53.8795 33.1629C53.5179 32.952 50.2935 31.0536 50.1429 31.0536L49.9621 31.1138C48.9375 32.1384 48.0335 33.3136 47.1897 34.4888C46.8884 34.4587 46.5871 34.4286 46.2857 34.4286C45.9844 34.4286 45.683 34.4587 45.3817 34.4888C45.0804 34.0368 42.8203 31.0536 42.4286 31.0536C42.2779 31.0536 39.0536 32.9821 38.692 33.1629C38.6016 33.2232 38.5714 33.3136 38.5714 33.3739C38.5714 33.8862 39.8371 36.9297 40.1083 37.5324C39.7467 38.0145 39.4453 38.5569 39.2042 39.0993C38.6016 39.1596 34.7143 39.5815 34.7143 40.0335V44.2522C34.7143 44.7042 38.6016 45.1261 39.2042 45.1864C39.4453 45.7589 39.7467 46.2712 40.1083 46.7533C39.8371 47.356 38.5714 50.3996 38.5714 50.9118C38.5714 50.9721 38.6016 51.0625 38.692 51.1228C39.0536 51.3337 42.2779 53.2623 42.4286 53.2623C42.8203 53.2623 45.0804 50.2489 45.3817 49.7969C45.683 49.827 45.9844 49.8571 46.2857 49.8571C46.5871 49.8571 46.8884 49.827 47.1897 49.7969C47.4911 50.2489 49.7511 53.2623 50.1429 53.2623C50.2935 53.2623 53.5179 51.3337 53.8795 51.1228C53.9699 51.0625 54 51.0022 54 50.9118C54 50.3694 52.7344 47.356 52.4632 46.7533C52.8248 46.2712 53.1261 45.7589 53.3672 45.1864C53.9699 45.1261 57.8571 44.7042 57.8571 44.2522V40.0335ZM57.8571 9.17634C57.8571 8.72433 53.9699 8.30245 53.3672 8.24218C53.1261 7.69977 52.8248 7.15736 52.4632 6.67522C52.7344 6.07254 54 3.05915 54 2.51674C54 2.45647 53.9699 2.36607 53.8795 2.3058C53.5179 2.09486 50.2935 0.196426 50.1429 0.196426L49.9621 0.256696C48.9375 1.28125 48.0335 2.45647 47.1897 3.6317C46.8884 3.60156 46.5871 3.57143 46.2857 3.57143C45.9844 3.57143 45.683 3.60156 45.3817 3.6317C45.0804 3.17968 42.8203 0.196426 42.4286 0.196426C42.2779 0.196426 39.0536 2.125 38.692 2.3058C38.6016 2.36607 38.5714 2.45647 38.5714 2.51674C38.5714 3.02902 39.8371 6.07254 40.1083 6.67522C39.7467 7.15736 39.4453 7.69977 39.2042 8.24218C38.6016 8.30245 34.7143 8.72433 34.7143 9.17634V13.3951C34.7143 13.8471 38.6016 14.269 39.2042 14.3292C39.4453 14.9018 39.7467 15.4141 40.1083 15.8962C39.8371 16.4989 38.5714 19.5424 38.5714 20.0547C38.5714 20.115 38.6016 20.2054 38.692 20.2656C39.0536 20.4766 42.2779 22.4051 42.4286 22.4051C42.8203 22.4051 45.0804 19.3917 45.3817 18.9397C45.683 18.9699 45.9844 19 46.2857 19C46.5871 19 46.8884 18.9699 47.1897 18.9397C47.4911 19.3917 49.7511 22.4051 50.1429 22.4051C50.2935 22.4051 53.5179 20.4766 53.8795 20.2656C53.9699 20.2054 54 20.1451 54 20.0547C54 19.5123 52.7344 16.4989 52.4632 15.8962C52.8248 15.4141 53.1261 14.9018 53.3672 14.3292C53.9699 14.269 57.8571 13.8471 57.8571 13.3951V9.17634Z" fill="#99811D"/>
</svg>
