<svg width="54" height="55" viewBox="0 0 54 55" fill="none" xmlns="http://www.w3.org/2000/svg">
<path d="M51.1071 12.2857H38.5714C37.3962 12.2857 35.8895 12.798 34.7143 13.4911V3.60714C34.7143 2.01004 33.4185 0.714282 31.8214 0.714282H19.2857C17.6886 0.714282 15.4587 1.64843 14.3438 2.76339L2.04911 15.058C0.934152 16.173 0 18.4029 0 20V40.25C0 41.8471 1.29576 43.1429 2.89286 43.1429H19.2857V51.8214C19.2857 53.4185 20.5815 54.7143 22.1786 54.7143H51.1071C52.7042 54.7143 54 53.4185 54 51.8214V15.1786C54 13.5815 52.7042 12.2857 51.1071 12.2857ZM34.7143 18.7042V27.7143H25.7042L34.7143 18.7042ZM15.4286 7.13281V16.1429H6.41853L15.4286 7.13281ZM21.3348 26.6295C20.2199 27.7444 19.2857 29.9743 19.2857 31.5714V39.2857H3.85714V20H16.3929C17.99 20 19.2857 18.7042 19.2857 17.1071V4.57143H30.8571V17.1071L21.3348 26.6295ZM50.1429 50.8571H23.1429V31.5714H35.6786C37.2757 31.5714 38.5714 30.2757 38.5714 28.6786V16.1429H50.1429V50.8571Z" fill="#99811D"/>
</svg>
