<svg width="56" height="165" viewBox="0 0 56 165" fill="none" xmlns="http://www.w3.org/2000/svg">
<circle cx="7.33317" cy="6.66667" r="6.66667" fill="#4E1D69" fill-opacity="0.15"/>
<circle cx="32.3332" cy="6.66667" r="6.66667" fill="#4E1D69" fill-opacity="0.15"/>
<circle cx="57.3332" cy="6.66667" r="6.66667" fill="#4E1D69" fill-opacity="0.15"/>
<circle cx="7.33317" cy="28.3333" r="6.66667" fill="#4E1D69" fill-opacity="0.15"/>
<circle cx="32.3332" cy="28.3333" r="6.66667" fill="#4E1D69" fill-opacity="0.15"/>
<circle cx="57.3332" cy="28.3333" r="6.66667" fill="#4E1D69" fill-opacity="0.15"/>
<circle cx="7.33317" cy="50" r="6.66667" fill="#4E1D69" fill-opacity="0.15"/>
<circle cx="32.3332" cy="50" r="6.66667" fill="#4E1D69" fill-opacity="0.15"/>
<circle cx="57.3332" cy="50" r="6.66667" fill="#4E1D69" fill-opacity="0.15"/>
<circle cx="7.33317" cy="71.6667" r="6.66667" fill="#4E1D69" fill-opacity="0.15"/>
<circle cx="32.3332" cy="71.6667" r="6.66667" fill="#4E1D69" fill-opacity="0.15"/>
<circle cx="57.3332" cy="71.6667" r="6.66667" fill="#4E1D69" fill-opacity="0.15"/>
<circle cx="7.33317" cy="93.3333" r="6.66667" fill="#4E1D69" fill-opacity="0.15"/>
<circle cx="32.3332" cy="93.3333" r="6.66667" fill="#4E1D69" fill-opacity="0.15"/>
<circle cx="57.3332" cy="93.3333" r="6.66667" fill="#4E1D69" fill-opacity="0.15"/>
<circle cx="7.33317" cy="115" r="6.66667" fill="#4E1D69" fill-opacity="0.15"/>
<circle cx="32.3332" cy="115" r="6.66667" fill="#4E1D69" fill-opacity="0.15"/>
<circle cx="57.3332" cy="115" r="6.66667" fill="#4E1D69" fill-opacity="0.15"/>
<circle cx="7.33317" cy="136.667" r="6.66667" fill="#4E1D69" fill-opacity="0.15"/>
<circle cx="32.3332" cy="136.667" r="6.66667" fill="#4E1D69" fill-opacity="0.15"/>
<circle cx="57.3332" cy="136.667" r="6.66667" fill="#4E1D69" fill-opacity="0.15"/>
<circle cx="7.33317" cy="158.333" r="6.66667" fill="#4E1D69" fill-opacity="0.15"/>
<circle cx="32.3332" cy="158.333" r="6.66667" fill="#4E1D69" fill-opacity="0.15"/>
<circle cx="57.3332" cy="158.333" r="6.66667" fill="#4E1D69" fill-opacity="0.15"/>
</svg>
