<svg width="50" height="50" viewBox="0 0 50 50" fill="none" xmlns="http://www.w3.org/2000/svg">
<path d="M13.0787 0C10.0485 0 7.58952 3.59939 7.58952 8.02058C7.58952 12.4374 10.0485 16.0377 13.0787 16.0377C16.1089 16.0377 18.5663 12.4374 18.5663 8.02058C18.5663 3.59939 16.1088 0 13.0787 0ZM36.9214 0C33.8911 0 31.4338 3.59939 31.4338 8.02058C31.4338 12.4374 33.8912 16.0377 36.9214 16.0377C39.9515 16.0377 42.4105 12.4374 42.4105 8.02058C42.4105 3.59939 39.9515 0 36.9214 0ZM47.3414 33.2681C46.6663 33.2742 45.9939 33.5725 45.4835 34.1622C45.285 34.3919 45.0832 34.6182 44.8783 34.841C39.3475 40.881 32.2108 43.9457 25.0579 44.0143C17.9586 44.0852 10.8314 41.2055 5.22966 35.367L5.09204 35.2333L4.48682 34.5684C3.44846 33.4102 1.77671 33.4239 0.757017 34.6031C-0.262821 35.7824 -0.251561 37.6809 0.786743 38.8391C0.973005 39.0472 1.21482 39.3034 1.50927 39.6134L1.6547 39.7784C8.27446 46.6777 16.7029 50.0805 25.1017 49.9986C33.562 49.9177 42.0007 46.2954 48.5346 39.1603C48.7745 38.8989 49.0107 38.6332 49.243 38.3635C50.2628 37.1842 50.2516 35.2874 49.2133 34.1292C48.6941 33.5496 48.0165 33.262 47.3413 33.2681L47.3414 33.2681Z" fill="white"/>
</svg>
