<svg width="50" height="50" viewBox="0 0 50 50" fill="none" xmlns="http://www.w3.org/2000/svg">
<path d="M48.525 23.95L26.025 1.45C25.125 0.55 23.875 0 22.5 0H5C2.25 0 0 2.25 0 5V22.5C0 23.875 0.55 25.125 1.475 26.05L23.975 48.55C24.875 49.45 26.125 50 27.5 50C28.875 50 30.125 49.45 31.025 48.525L48.525 31.025C49.45 30.125 50 28.875 50 27.5C50 26.125 49.425 24.85 48.525 23.95ZM8.75 12.5C6.675 12.5 5 10.825 5 8.75C5 6.675 6.675 5 8.75 5C10.825 5 12.5 6.675 12.5 8.75C12.5 10.825 10.825 12.5 8.75 12.5ZM38.175 33.175L27.5 43.85L16.825 33.175C15.9487 32.3009 15.3516 31.1862 15.1095 29.9724C14.8674 28.7585 14.9912 27.5001 15.4652 26.3567C15.9392 25.2133 16.742 24.2364 17.7718 23.5497C18.8017 22.8631 20.0122 22.4978 21.25 22.5C22.975 22.5 24.55 23.2 25.675 24.35L27.5 26.15L29.325 24.325C30.4986 23.1514 32.0903 22.4921 33.75 22.4921C35.4097 22.4921 37.0014 23.1514 38.175 24.325C39.3486 25.4986 40.0079 27.0903 40.0079 28.75C40.0079 30.4097 39.3486 32.0014 38.175 33.175Z" fill="#501F6A"/>
</svg>
