<svg width="40" height="50" viewBox="0 0 40 50" fill="none" xmlns="http://www.w3.org/2000/svg">
<path fill-rule="evenodd" clip-rule="evenodd" d="M19.6392 0.0328205L0 3.63522V31.7079C0 35.539 1.9933 39.0941 5.26186 41.0926L19.4784 49.785C19.7986 49.9808 20.2014 49.9808 20.5216 49.785L34.7381 41.0926C38.0067 39.0941 40 35.539 40 31.7079V3.63522L20.3608 0.0328203C20.1223 -0.0109402 19.8777 -0.0109401 19.6392 0.0328205ZM16.2604 29.2236C16.7396 29.6923 17.3385 29.9267 17.9375 29.9267C18.5365 29.9267 19.1354 29.6923 19.6146 29.2236L29.1979 19.8483C30.1562 18.9107 30.1562 17.5045 29.1979 16.5669C28.2396 15.6294 26.8021 15.6294 25.8438 16.5669L17.9375 24.3015L14.8229 21.2546C13.9844 20.317 12.4271 20.317 11.4688 21.2546C10.5104 22.1921 10.5104 23.5984 11.4688 24.5359L16.2604 29.2236Z" fill="#501B6C"/>
</svg>
