<svg width="54" height="43" viewBox="0 0 54 43" fill="none" xmlns="http://www.w3.org/2000/svg">
<path d="M10.4263 30.1708C11.1897 29.4074 11.5714 28.4933 11.5714 27.4286C11.5714 26.3638 11.1897 25.4598 10.4263 24.7165C9.68304 23.9531 8.77902 23.5714 7.71429 23.5714C6.64955 23.5714 5.73549 23.9531 4.9721 24.7165C4.22879 25.4598 3.85714 26.3638 3.85714 27.4286C3.85714 28.4933 4.22879 29.4074 4.9721 30.1708C5.73549 30.9141 6.64955 31.2857 7.71429 31.2857C8.77902 31.2857 9.68304 30.9141 10.4263 30.1708ZM16.2121 16.6708C16.9754 15.9074 17.3571 14.9933 17.3571 13.9286C17.3571 12.8638 16.9754 11.9598 16.2121 11.2165C15.4688 10.4531 14.5647 10.0714 13.5 10.0714C12.4353 10.0714 11.5212 10.4531 10.7578 11.2165C10.0145 11.9598 9.64286 12.8638 9.64286 13.9286C9.64286 14.9933 10.0145 15.9074 10.7578 16.6708C11.5212 17.4141 12.4353 17.7857 13.5 17.7857C14.5647 17.7857 15.4688 17.4141 16.2121 16.6708ZM30.2545 28.423L33.298 16.9118C33.4185 16.3895 33.3382 15.9074 33.0569 15.4654C32.7958 15.0033 32.4141 14.702 31.9118 14.5614C31.4096 14.4208 30.9275 14.4911 30.4654 14.7723C30.0033 15.0335 29.702 15.4252 29.5614 15.9475L26.5179 27.4587C25.3125 27.5592 24.2377 28.0011 23.2935 28.7846C22.3493 29.548 21.7165 30.5324 21.3951 31.7377C20.9933 33.2846 21.1942 34.7511 21.9978 36.1373C22.8013 37.5234 23.9766 38.4174 25.5234 38.8192C27.0703 39.221 28.5368 39.0201 29.923 38.2165C31.3092 37.4129 32.2031 36.2377 32.6049 34.6908C32.9263 33.4855 32.8661 32.3103 32.4241 31.1652C31.9821 30.0201 31.2589 29.106 30.2545 28.423ZM48.9978 30.1708C49.7612 29.4074 50.1429 28.4933 50.1429 27.4286C50.1429 26.3638 49.7612 25.4598 48.9978 24.7165C48.2545 23.9531 47.3504 23.5714 46.2857 23.5714C45.221 23.5714 44.3069 23.9531 43.5435 24.7165C42.8002 25.4598 42.4286 26.3638 42.4286 27.4286C42.4286 28.4933 42.8002 29.4074 43.5435 30.1708C44.3069 30.9141 45.221 31.2857 46.2857 31.2857C47.3504 31.2857 48.2545 30.9141 48.9978 30.1708ZM29.7121 10.885C30.4754 10.1217 30.8571 9.20759 30.8571 8.14286C30.8571 7.07812 30.4754 6.17411 29.7121 5.4308C28.9688 4.66741 28.0647 4.28571 27 4.28571C25.9353 4.28571 25.0212 4.66741 24.2578 5.4308C23.5145 6.17411 23.1429 7.07812 23.1429 8.14286C23.1429 9.20759 23.5145 10.1217 24.2578 10.885C25.0212 11.6283 25.9353 12 27 12C28.0647 12 28.9688 11.6283 29.7121 10.885ZM43.2121 16.6708C43.9754 15.9074 44.3571 14.9933 44.3571 13.9286C44.3571 12.8638 43.9754 11.9598 43.2121 11.2165C42.4688 10.4531 41.5647 10.0714 40.5 10.0714C39.4353 10.0714 38.5212 10.4531 37.7578 11.2165C37.0145 11.9598 36.6429 12.8638 36.6429 13.9286C36.6429 14.9933 37.0145 15.9074 37.7578 16.6708C38.5212 17.4141 39.4353 17.7857 40.5 17.7857C41.5647 17.7857 42.4688 17.4141 43.2121 16.6708ZM54 27.4286C54 32.6719 52.5837 37.5234 49.7511 41.9833C49.3694 42.5658 48.827 42.8571 48.1239 42.8571H5.87612C5.17299 42.8571 4.63058 42.5658 4.24888 41.9833C1.41629 37.5435 0 32.692 0 27.4286C0 23.7723 0.71317 20.2768 2.13951 16.942C3.56585 13.6071 5.48438 10.7344 7.89509 8.32366C10.3058 5.91294 13.1786 3.99442 16.5134 2.56808C19.8482 1.14174 23.3438 0.428571 27 0.428571C30.6562 0.428571 34.1518 1.14174 37.4866 2.56808C40.8214 3.99442 43.6942 5.91294 46.1049 8.32366C48.5156 10.7344 50.4342 13.6071 51.8605 16.942C53.2868 20.2768 54 23.7723 54 27.4286Z" fill="#99811D"/>
</svg>
