<svg width="47" height="51" viewBox="0 0 47 51" fill="none" xmlns="http://www.w3.org/2000/svg">
<path d="M7.14174 42.5703C7.52344 42.1886 7.71429 41.7366 7.71429 41.2143C7.71429 40.692 7.52344 40.24 7.14174 39.8583C6.76004 39.4766 6.30804 39.2857 5.78571 39.2857C5.26339 39.2857 4.81138 39.4766 4.42969 39.8583C4.04799 40.24 3.85714 40.692 3.85714 41.2143C3.85714 41.7366 4.04799 42.1886 4.42969 42.5703C4.81138 42.952 5.26339 43.1429 5.78571 43.1429C6.30804 43.1429 6.76004 42.952 7.14174 42.5703ZM42.4286 23.8571C42.4286 22.8326 42.0368 21.9386 41.2534 21.1752C40.4699 20.3917 39.5759 20 38.5714 20H27.9643C27.9643 18.8348 28.4464 17.2377 29.4107 15.2087C30.375 13.1596 30.8571 11.5424 30.8571 10.3571C30.8571 8.38839 30.5357 6.93192 29.8929 5.98772C29.25 5.04353 27.9643 4.57143 26.0357 4.57143C25.5134 5.09375 25.1317 5.94754 24.8906 7.13281C24.6496 8.31808 24.3382 9.5837 23.9565 10.9297C23.5949 12.2556 23.0022 13.3504 22.1786 14.2143C21.7366 14.6763 20.9632 15.5904 19.8583 16.9565C19.7779 17.0569 19.5469 17.3583 19.1652 17.8605C18.7835 18.3627 18.4621 18.7746 18.2009 19.096C17.9598 19.4174 17.6183 19.8493 17.1763 20.3917C16.7344 20.9141 16.3326 21.356 15.971 21.7176C15.6094 22.0592 15.2176 22.4107 14.7958 22.7723C14.394 23.1339 13.9922 23.4051 13.5904 23.5859C13.2087 23.7667 12.8571 23.8571 12.5357 23.8571H11.5714V43.1429H12.5357C12.7969 43.1429 13.1083 43.173 13.4699 43.2333C13.8516 43.2935 14.183 43.3638 14.4643 43.4442C14.7656 43.5045 15.1473 43.615 15.6094 43.7757C16.0915 43.9163 16.4431 44.0268 16.6641 44.1071C16.9051 44.1875 17.2667 44.3181 17.7489 44.4989C18.231 44.6596 18.5223 44.76 18.6228 44.8002C22.8616 46.2667 26.2969 47 28.9286 47H32.5748C36.4319 47 38.3605 45.3225 38.3605 41.9676C38.3605 41.4453 38.3103 40.8828 38.2098 40.2801C38.8125 39.9587 39.2846 39.4364 39.6261 38.7132C39.9877 37.9699 40.1685 37.2266 40.1685 36.4833C40.1685 35.74 39.9877 35.0469 39.6261 34.404C40.6908 33.3996 41.2232 32.2042 41.2232 30.8181C41.2232 30.3158 41.1228 29.7634 40.9219 29.1607C40.721 28.5379 40.4699 28.0558 40.1685 27.7143C40.8114 27.6942 41.3438 27.2221 41.7656 26.298C42.2076 25.3739 42.4286 24.5603 42.4286 23.8571ZM46.2857 23.827C46.2857 25.615 45.7935 27.2522 44.8092 28.7388C44.99 29.4018 45.0804 30.0949 45.0804 30.8181C45.0804 32.365 44.6987 33.8114 43.9353 35.1574C43.9955 35.5792 44.0257 36.0112 44.0257 36.4531C44.0257 38.4821 43.423 40.2701 42.2176 41.817C42.2377 44.6094 41.3839 46.8092 39.6563 48.4163C37.9286 50.0435 35.6484 50.8571 32.8159 50.8571H31.731H28.9286C27 50.8571 25.0915 50.6261 23.2031 50.1641C21.3348 49.7221 19.1652 49.0692 16.6942 48.2054C14.3638 47.4018 12.9777 47 12.5357 47H3.85714C2.79241 47 1.87835 46.6283 1.11496 45.885C0.371652 45.1217 0 44.2076 0 43.1429V23.8571C0 22.7924 0.371652 21.8884 1.11496 21.1451C1.87835 20.3817 2.79241 20 3.85714 20H12.1138C12.8371 19.5179 14.2132 17.9609 16.2422 15.3292C17.4074 13.8225 18.4821 12.5368 19.4665 11.4721C19.9487 10.9699 20.3002 10.1161 20.5212 8.91071C20.7623 7.68527 21.0737 6.4096 21.4554 5.0837C21.8371 3.75781 22.4598 2.67299 23.3237 1.82924C24.1071 1.08593 25.0112 0.714282 26.0357 0.714282C27.7232 0.714282 29.24 1.04576 30.5859 1.7087C31.9319 2.35156 32.9565 3.36607 33.6596 4.75223C34.3627 6.13839 34.7143 8.0067 34.7143 10.3571C34.7143 12.2254 34.2321 14.154 33.2679 16.1429H38.5714C40.6607 16.1429 42.4688 16.9062 43.9955 18.433C45.5223 19.9598 46.2857 21.7578 46.2857 23.827Z" fill="#99811D"/>
</svg>
