<svg width="58" height="54" viewBox="0 0 58 54" fill="none" xmlns="http://www.w3.org/2000/svg">
<path d="M24.74 32.1685C26.2467 30.6618 27 28.8437 27 26.7143C27 24.5848 26.2467 22.7667 24.74 21.26C23.2333 19.7533 21.4152 19 19.2857 19C17.1563 19 15.3382 19.7533 13.8315 21.26C12.3248 22.7667 11.5714 24.5848 11.5714 26.7143C11.5714 28.8437 12.3248 30.6618 13.8315 32.1685C15.3382 33.6752 17.1563 34.4286 19.2857 34.4286C21.4152 34.4286 23.2333 33.6752 24.74 32.1685ZM50.1429 42.1429C50.1429 41.0982 49.7612 40.1942 48.9978 39.4308C48.2344 38.6674 47.3304 38.2857 46.2857 38.2857C45.2411 38.2857 44.3371 38.6674 43.5737 39.4308C42.8103 40.1942 42.4286 41.0982 42.4286 42.1429C42.4286 43.2076 42.8002 44.1217 43.5435 44.885C44.3069 45.6283 45.221 46 46.2857 46C47.3504 46 48.2545 45.6283 48.9978 44.885C49.7612 44.1217 50.1429 43.2076 50.1429 42.1429ZM50.1429 11.2857C50.1429 10.2411 49.7612 9.33705 48.9978 8.57366C48.2344 7.81027 47.3304 7.42857 46.2857 7.42857C45.2411 7.42857 44.3371 7.81027 43.5737 8.57366C42.8103 9.33705 42.4286 10.2411 42.4286 11.2857C42.4286 12.3504 42.8002 13.2645 43.5435 14.0279C44.3069 14.7712 45.221 15.1429 46.2857 15.1429C47.3504 15.1429 48.2545 14.7712 48.9978 14.0279C49.7612 13.2645 50.1429 12.3504 50.1429 11.2857ZM38.5714 23.9721V29.5469C38.5714 29.7478 38.5011 29.9487 38.3605 30.1496C38.2199 30.3304 38.0592 30.4308 37.8784 30.4509L33.2076 31.1741C32.9866 31.8772 32.6652 32.6406 32.2433 33.4643C32.9263 34.4286 33.8304 35.5837 34.9554 36.9297C35.096 37.1507 35.1663 37.3516 35.1663 37.5324C35.1663 37.7734 35.096 37.9643 34.9554 38.1049C34.4933 38.7076 33.6596 39.6116 32.4542 40.817C31.269 42.0022 30.4855 42.5949 30.1038 42.5949C29.8828 42.5949 29.6719 42.5246 29.471 42.3839L26.0056 39.6719C25.2623 40.0536 24.4888 40.365 23.6853 40.606C23.4643 42.7757 23.2333 44.3326 22.9922 45.2768C22.8516 45.7589 22.5502 46 22.0882 46H16.4833C16.2623 46 16.0614 45.9297 15.8806 45.7891C15.6998 45.6283 15.5993 45.4475 15.5792 45.2467L14.8862 40.6362C14.2031 40.4353 13.4498 40.1239 12.6261 39.702L9.07031 42.3839C8.92969 42.5246 8.72879 42.5949 8.46763 42.5949C8.24665 42.5949 8.03571 42.5145 7.83482 42.3538C4.94196 39.6819 3.49554 38.0748 3.49554 37.5324C3.49554 37.3516 3.56585 37.1607 3.70647 36.9598C3.90737 36.6786 4.3192 36.1462 4.94196 35.3627C5.56473 34.5792 6.03683 33.9665 6.35826 33.5246C5.89621 32.6406 5.54464 31.817 5.30357 31.0536L0.723214 30.3304C0.522321 30.3103 0.351562 30.2199 0.210938 30.0592C0.0703125 29.8783 0 29.6775 0 29.4565V23.8817C0 23.6808 0.0703125 23.49 0.210938 23.3092C0.351562 23.1083 0.512277 22.9978 0.69308 22.9777L5.36384 22.2545C5.58482 21.5513 5.90625 20.7879 6.32813 19.9643C5.64509 19 4.74107 17.8449 3.61607 16.4989C3.47545 16.2779 3.40513 16.077 3.40513 15.8962C3.40513 15.6551 3.47545 15.4542 3.61607 15.2935C4.05804 14.6908 4.8817 13.7969 6.08705 12.6116C7.29241 11.4263 8.08594 10.8337 8.46763 10.8337C8.68862 10.8337 8.89955 10.904 9.10045 11.0446L12.5658 13.7567C13.2489 13.3951 14.0223 13.0737 14.8862 12.7924C15.1071 10.6228 15.3382 9.07589 15.5792 8.15179C15.7199 7.66964 16.0212 7.42857 16.4833 7.42857H22.0882C22.3092 7.42857 22.51 7.50893 22.6908 7.66964C22.8717 7.81027 22.9721 7.98103 22.9922 8.18192L23.6853 12.7924C24.3683 12.9933 25.1217 13.3047 25.9453 13.7266L29.5011 11.0446C29.6618 10.904 29.8627 10.8337 30.1038 10.8337C30.3248 10.8337 30.5357 10.9141 30.7366 11.0748C33.6295 13.7466 35.0759 15.3538 35.0759 15.8962C35.0759 16.0569 35.0056 16.2478 34.865 16.4688C34.6239 16.7902 34.202 17.3326 33.5993 18.096C32.9967 18.8594 32.5446 19.4621 32.2433 19.904C32.7054 20.8683 33.0469 21.692 33.2679 22.375L37.8482 23.0681C38.0491 23.1083 38.2199 23.2187 38.3605 23.3996C38.5011 23.5603 38.5714 23.7511 38.5714 23.9721ZM57.8571 40.0335V44.2522C57.8571 44.5737 56.3605 44.885 53.3672 45.1864C53.1261 45.7288 52.8248 46.2511 52.4632 46.7533C53.4877 49.0234 54 50.4096 54 50.9118C54 50.9922 53.9598 51.0625 53.8795 51.1228C51.4286 52.5491 50.183 53.2623 50.1429 53.2623C49.9821 53.2623 49.5201 52.7902 48.7567 51.846C47.9933 50.9018 47.471 50.2188 47.1897 49.7969C46.7879 49.8371 46.4866 49.8571 46.2857 49.8571C46.0848 49.8571 45.7835 49.8371 45.3817 49.7969C45.1004 50.2188 44.5781 50.9018 43.8147 51.846C43.0513 52.7902 42.5893 53.2623 42.4286 53.2623C42.3884 53.2623 41.1429 52.5491 38.692 51.1228C38.6116 51.0625 38.5714 50.9922 38.5714 50.9118C38.5714 50.4096 39.0837 49.0234 40.1083 46.7533C39.7467 46.2511 39.4453 45.7288 39.2042 45.1864C36.2109 44.885 34.7143 44.5737 34.7143 44.2522V40.0335C34.7143 39.7121 36.2109 39.4007 39.2042 39.0993C39.4654 38.5167 39.7667 37.9944 40.1083 37.5324C39.0837 35.2623 38.5714 33.8761 38.5714 33.3739C38.5714 33.2935 38.6116 33.2232 38.692 33.1629C38.7723 33.1228 39.1239 32.9219 39.7467 32.5603C40.3694 32.1987 40.9621 31.8571 41.5246 31.5357C42.0871 31.2143 42.3884 31.0536 42.4286 31.0536C42.5893 31.0536 43.0513 31.5257 43.8147 32.4699C44.5781 33.394 45.1004 34.067 45.3817 34.4888C45.7835 34.4487 46.0848 34.4286 46.2857 34.4286C46.4866 34.4286 46.7879 34.4487 47.1897 34.4888C48.2143 33.0625 49.1384 31.9375 49.9621 31.1138L50.1429 31.0536C50.2232 31.0536 51.4688 31.7567 53.8795 33.1629C53.9598 33.2232 54 33.2935 54 33.3739C54 33.8761 53.4877 35.2623 52.4632 37.5324C52.8047 37.9944 53.106 38.5167 53.3672 39.0993C56.3605 39.4007 57.8571 39.7121 57.8571 40.0335ZM57.8571 9.17634V13.3951C57.8571 13.7165 56.3605 14.0279 53.3672 14.3292C53.1261 14.8717 52.8248 15.394 52.4632 15.8962C53.4877 18.1663 54 19.5525 54 20.0547C54 20.135 53.9598 20.2054 53.8795 20.2656C51.4286 21.692 50.183 22.4051 50.1429 22.4051C49.9821 22.4051 49.5201 21.933 48.7567 20.9888C47.9933 20.0446 47.471 19.3616 47.1897 18.9397C46.7879 18.9799 46.4866 19 46.2857 19C46.0848 19 45.7835 18.9799 45.3817 18.9397C45.1004 19.3616 44.5781 20.0446 43.8147 20.9888C43.0513 21.933 42.5893 22.4051 42.4286 22.4051C42.3884 22.4051 41.1429 21.692 38.692 20.2656C38.6116 20.2054 38.5714 20.135 38.5714 20.0547C38.5714 19.5525 39.0837 18.1663 40.1083 15.8962C39.7467 15.394 39.4453 14.8717 39.2042 14.3292C36.2109 14.0279 34.7143 13.7165 34.7143 13.3951V9.17634C34.7143 8.85491 36.2109 8.54353 39.2042 8.24218C39.4654 7.6596 39.7667 7.13728 40.1083 6.67522C39.0837 4.40513 38.5714 3.01897 38.5714 2.51674C38.5714 2.43638 38.6116 2.36607 38.692 2.3058C38.7723 2.26562 39.1239 2.06473 39.7467 1.70312C40.3694 1.34151 40.9621 0.999998 41.5246 0.678571C42.0871 0.357141 42.3884 0.196426 42.4286 0.196426C42.5893 0.196426 43.0513 0.668525 43.8147 1.61272C44.5781 2.53683 45.1004 3.20982 45.3817 3.6317C45.7835 3.59152 46.0848 3.57143 46.2857 3.57143C46.4866 3.57143 46.7879 3.59152 47.1897 3.6317C48.2143 2.20535 49.1384 1.08035 49.9621 0.256696L50.1429 0.196426C50.2232 0.196426 51.4688 0.899551 53.8795 2.3058C53.9598 2.36607 54 2.43638 54 2.51674C54 3.01897 53.4877 4.40513 52.4632 6.67522C52.8047 7.13728 53.106 7.6596 53.3672 8.24218C56.3605 8.54353 57.8571 8.85491 57.8571 9.17634Z" fill="#99811D"/>
</svg>
