<svg width="19" height="20" viewBox="0 0 19 20" fill="none" xmlns="http://www.w3.org/2000/svg">
<path fill-rule="evenodd" clip-rule="evenodd" d="M9.50121 13.2872L15.6508 19.5246C16.2677 20.1552 16.6691 20.1617 17.2973 19.5246L18.5312 18.2729C19.1356 17.66 19.1766 17.2577 18.5312 16.603L12.0205 10.0003L18.5318 3.39753C19.1416 2.77696 19.1534 2.35815 18.5318 1.72699L17.2979 0.47586C16.6578 -0.173531 16.2624 -0.143532 15.6514 0.47586L9.50121 6.7133L3.35159 0.476448C2.74061 -0.142944 2.34516 -0.172943 1.70508 0.476448L0.47124 1.72758C-0.151024 2.35874 -0.139743 2.77755 0.47124 3.39812L6.98186 10.0003L0.47124 16.603C-0.174181 17.2577 -0.139743 17.66 0.47124 18.2729L1.70449 19.5246C2.32735 20.1617 2.72873 20.1552 3.351 19.5246L9.50121 13.2872Z" fill="#333333"/>
</svg>
