<svg width="18" height="18" viewBox="0 0 18 18" fill="none" xmlns="http://www.w3.org/2000/svg">
<path d="M17.332 0.628906L13.6758 -0.214844C13.2891 -0.320312 12.8672 -0.109375 12.6914 0.277344L11.0039 4.21484C10.8633 4.56641 10.9688 4.95312 11.25 5.19922L13.3945 6.95703C12.1289 9.62891 9.91406 11.8789 7.17188 13.1797L5.41406 11.0352C5.16797 10.7539 4.78125 10.6484 4.42969 10.7891L0.492188 12.4766C0.105469 12.6523 -0.0703125 13.0742 0 13.4609L0.84375 17.1172C0.949219 17.5039 1.26562 17.75 1.6875 17.75C10.6875 17.75 18 10.4727 18 1.4375C18 1.05078 17.7188 0.734375 17.332 0.628906Z" fill="white"/>
</svg>
