<svg width="54" height="154" viewBox="0 0 54 154" fill="none" xmlns="http://www.w3.org/2000/svg">
<circle cx="1.15632" cy="6.21687" r="6.21687" fill="#4E1D69" fill-opacity="0.15"/>
<circle cx="24.4698" cy="6.21687" r="6.21687" fill="#4E1D69" fill-opacity="0.15"/>
<circle cx="47.7833" cy="6.21687" r="6.21687" fill="#4E1D69" fill-opacity="0.15"/>
<circle cx="1.15632" cy="26.4217" r="6.21687" fill="#4E1D69" fill-opacity="0.15"/>
<circle cx="24.4698" cy="26.4217" r="6.21687" fill="#4E1D69" fill-opacity="0.15"/>
<circle cx="47.7833" cy="26.4217" r="6.21687" fill="#4E1D69" fill-opacity="0.15"/>
<circle cx="1.15632" cy="46.6265" r="6.21687" fill="#4E1D69" fill-opacity="0.15"/>
<circle cx="24.4698" cy="46.6265" r="6.21687" fill="#4E1D69" fill-opacity="0.15"/>
<circle cx="47.7833" cy="46.6265" r="6.21687" fill="#4E1D69" fill-opacity="0.15"/>
<circle cx="1.15632" cy="66.8313" r="6.21687" fill="#4E1D69" fill-opacity="0.15"/>
<circle cx="24.4698" cy="66.8313" r="6.21687" fill="#4E1D69" fill-opacity="0.15"/>
<circle cx="47.7833" cy="66.8313" r="6.21687" fill="#4E1D69" fill-opacity="0.15"/>
<circle cx="1.15632" cy="87.0361" r="6.21687" fill="#4E1D69" fill-opacity="0.15"/>
<circle cx="24.4698" cy="87.0361" r="6.21687" fill="#4E1D69" fill-opacity="0.15"/>
<circle cx="47.7833" cy="87.0361" r="6.21687" fill="#4E1D69" fill-opacity="0.15"/>
<circle cx="1.15632" cy="107.241" r="6.21687" fill="#4E1D69" fill-opacity="0.15"/>
<circle cx="24.4698" cy="107.241" r="6.21687" fill="#4E1D69" fill-opacity="0.15"/>
<circle cx="47.7833" cy="107.241" r="6.21687" fill="#4E1D69" fill-opacity="0.15"/>
<circle cx="1.15632" cy="127.446" r="6.21687" fill="#4E1D69" fill-opacity="0.15"/>
<circle cx="24.4698" cy="127.446" r="6.21687" fill="#4E1D69" fill-opacity="0.15"/>
<circle cx="47.7833" cy="127.446" r="6.21687" fill="#4E1D69" fill-opacity="0.15"/>
<circle cx="1.15632" cy="147.651" r="6.21687" fill="#4E1D69" fill-opacity="0.15"/>
<circle cx="24.4698" cy="147.651" r="6.21687" fill="#4E1D69" fill-opacity="0.15"/>
<circle cx="47.7833" cy="147.651" r="6.21687" fill="#4E1D69" fill-opacity="0.15"/>
</svg>
