<svg width="30" height="23" viewBox="0 0 30 23" fill="none" xmlns="http://www.w3.org/2000/svg">
<path d="M29.1164 1.1315C27.2982 0.311841 25.4785 6.05929e-08 23.6598 6.05929e-08C17.8863 -0.000503722 12.1132 3.14058 6.33974 3.14058C4.8918 3.14058 3.44479 2.9431 1.99684 2.44939C1.83419 2.39397 1.67107 2.36778 1.5117 2.36778C0.704989 2.36778 0 3.03882 0 3.97031V19.9533C0 20.5896 0.338901 21.1926 0.883111 21.4375C2.70136 22.2576 4.52102 22.5695 6.33974 22.5695C12.1132 22.5695 17.8868 19.4284 23.6603 19.4284C25.1082 19.4284 26.5552 19.6259 28.0032 20.1196C28.1658 20.175 28.3289 20.2012 28.4883 20.2012C29.295 20.2012 30 19.5301 30 18.5986V2.61614C29.9995 1.97936 29.6606 1.37684 29.1164 1.1315ZM2.24996 5.04891C3.19307 5.30282 4.17743 5.43027 5.18992 5.49879C4.9143 6.9794 3.70307 8.09528 2.24996 8.09528V5.04891ZM2.24996 19.4067V16.9996C3.86103 16.9996 5.16461 18.3735 5.23632 20.0929C4.18025 20.0017 3.19307 19.775 2.24996 19.4067ZM14.9998 16.121C12.9284 16.121 11.2498 13.9553 11.2498 11.2847C11.2498 8.61367 12.9289 6.44842 14.9998 6.44842C17.0707 6.44842 18.7497 8.61367 18.7497 11.2847C18.7497 13.9563 17.0702 16.121 14.9998 16.121ZM27.7496 17.5205C26.9283 17.2994 26.0757 17.1755 25.2034 17.0954C25.4785 15.7815 26.4924 14.784 27.7496 14.6127V17.5205ZM27.7496 5.62574C26.3016 5.42876 25.178 4.12951 25.1335 2.52496C26.0494 2.63428 26.919 2.83881 27.7496 3.16275V5.62574Z" fill="#4E1D69" fill-opacity="0.8"/>
</svg>
