<svg width="23" height="22" viewBox="0 0 23 22" fill="none" xmlns="http://www.w3.org/2000/svg">
<path d="M11.5 0C5.1589 0 0 4.85142 0 10.8146C0 16.7777 5.1589 21.6291 11.5 21.6291C17.8411 21.6291 23 16.7777 23 10.8146C23 4.85142 17.8411 0 11.5 0ZM11.5 19.4662C6.42735 19.4662 2.3 15.5849 2.3 10.8146C2.3 6.04427 6.42735 2.16291 11.5 2.16291C16.5726 2.16291 20.7 6.04427 20.7 10.8146C20.7 15.5849 16.5726 19.4662 11.5 19.4662Z" fill="#333333"/>
<path d="M11.5241 5C10.3247 5.00143 9.17486 5.45011 8.32676 6.24764C7.47866 7.04517 7.00152 8.12644 7 9.25431H9.3C9.3 8.10043 10.2982 7.16284 11.5241 7.16284C12.75 7.16284 13.7482 8.10043 13.7482 9.25431C13.7482 9.901 13.1951 10.3703 12.3498 11.0127C12.0737 11.2161 11.8085 11.4323 11.5552 11.6605C10.4075 12.7386 10.3741 13.8839 10.3741 14.0115V14.7328H12.6741L12.673 14.0482C12.6741 14.0309 12.7109 13.6308 13.1801 13.1907C13.3526 13.0285 13.57 12.8663 13.7954 12.6954C14.6912 12.013 16.0471 10.9824 16.0471 9.25431C16.0461 8.12645 15.5694 7.04501 14.7214 6.24739C13.8734 5.44977 12.7235 5.00115 11.5241 5ZM10.3741 15.8142H12.6741V17.9771H10.3741V15.8142Z" fill="#333333"/>
</svg>
