<svg width="150" height="150" viewBox="0 0 150 150" fill="none" xmlns="http://www.w3.org/2000/svg">
<circle cx="75" cy="75" r="75" fill="#F2E7F8"/>
<path d="M111.916 90.8411C114.272 87.6944 115.577 83.6572 115.591 79.4729C115.591 74.8282 114.015 70.3738 111.211 67.0896C108.406 63.8053 104.603 61.9602 100.636 61.9602C96.6702 61.9602 92.8664 63.8053 90.0619 67.0896C87.2574 70.3738 85.6818 74.8282 85.6818 79.4729C85.6962 83.6572 87.0012 87.6944 89.3564 90.8411C86.2798 93.0744 83.7397 96.1885 81.9755 99.8898C80.2113 103.591 79.2811 107.758 79.2727 111.996C79.2727 113.323 79.7229 114.596 80.5242 115.534C81.3255 116.473 82.4123 117 83.5455 117C84.6787 117 85.7654 116.473 86.5667 115.534C87.368 114.596 87.8182 113.323 87.8182 111.996C87.8182 108.015 89.1687 104.197 91.5725 101.382C93.9764 98.567 97.2368 96.9855 100.636 96.9855C104.036 96.9855 107.296 98.567 109.7 101.382C112.104 104.197 113.455 108.015 113.455 111.996C113.455 113.323 113.905 114.596 114.706 115.534C115.507 116.473 116.594 117 117.727 117C118.86 117 119.947 116.473 120.749 115.534C121.55 114.596 122 113.323 122 111.996C121.992 107.758 121.061 103.591 119.297 99.8898C117.533 96.1885 114.993 93.0744 111.916 90.8411ZM100.636 86.9783C99.3688 86.9783 98.1296 86.5381 97.0757 85.7134C96.0217 84.8887 95.2002 83.7165 94.7151 82.3451C94.2301 80.9736 94.1031 79.4645 94.3504 78.0086C94.5977 76.5527 95.2081 75.2154 96.1045 74.1657C97.0008 73.1161 98.1428 72.4013 99.386 72.1117C100.629 71.8221 101.918 71.9707 103.089 72.5388C104.26 73.1068 105.261 74.0688 105.965 75.3031C106.67 76.5373 107.045 77.9884 107.045 79.4729C107.043 81.4626 106.367 83.3701 105.166 84.7771C103.964 86.184 102.335 86.9756 100.636 86.9783ZM52.7519 50.4869L61.2974 60.4942C62.1032 61.4056 63.1825 61.9099 64.3028 61.8985C65.4231 61.8871 66.4948 61.3609 67.287 60.4332C68.0792 59.5055 68.5285 58.2505 68.5382 56.9386C68.548 55.6267 68.1173 54.3627 67.339 53.419L66.0871 51.953H83.9129L82.661 53.419C82.2529 53.8806 81.9274 54.4327 81.7035 55.0432C81.4795 55.6537 81.3617 56.3102 81.3568 56.9746C81.3518 57.639 81.4599 58.2979 81.6748 58.9128C81.8896 59.5277 82.2069 60.0864 82.608 60.5562C83.0092 61.026 83.4863 61.3975 84.0114 61.6491C84.5365 61.9007 85.0991 62.0273 85.6664 62.0215C86.2338 62.0157 86.7944 61.8777 87.3157 61.6155C87.837 61.3532 88.3085 60.972 88.7026 60.4942L97.2481 50.4869C98.045 49.546 98.4921 48.2745 98.4921 46.9494C98.4921 45.6242 98.045 44.3527 97.2481 43.4118L88.7026 33.4046C87.8968 32.4931 86.8175 31.9888 85.6972 32.0002C84.5769 32.0116 83.5052 32.5378 82.7131 33.4655C81.9209 34.3932 81.4715 35.6482 81.4618 36.9601C81.452 38.2721 81.8827 39.536 82.661 40.4797L83.9129 41.9457H66.0871L67.339 40.4797C68.1173 39.536 68.548 38.2721 68.5382 36.9601C68.5285 35.6482 68.0792 34.3932 67.287 33.4655C66.4948 32.5378 65.4231 32.0116 64.3028 32.0002C63.1825 31.9888 62.1032 32.4931 61.2974 33.4046L52.7519 43.4118C51.9551 44.3527 51.5079 45.6242 51.5079 46.9494C51.5079 48.2745 51.9551 49.546 52.7519 50.4869ZM60.6436 90.8411C62.9989 87.6944 64.3038 83.6572 64.3182 79.4729C64.3182 74.8282 62.7426 70.3738 59.9381 67.0896C57.1336 63.8053 53.3298 61.9602 49.3636 61.9602C45.3974 61.9602 41.5937 63.8053 38.7892 67.0896C35.9847 70.3738 34.4091 74.8282 34.4091 79.4729C34.4234 83.6572 35.7284 87.6944 38.0836 90.8411C35.0071 93.0744 32.467 96.1885 30.7027 99.8898C28.9385 103.591 28.0084 107.758 28 111.996C28 113.323 28.4502 114.596 29.2515 115.534C30.0527 116.473 31.1395 117 32.2727 117C33.4059 117 34.4927 116.473 35.294 115.534C36.0953 114.596 36.5455 113.323 36.5455 111.996C36.5455 108.015 37.8959 104.197 40.2998 101.382C42.7037 98.567 45.964 96.9855 49.3636 96.9855C52.7632 96.9855 56.0236 98.567 58.4275 101.382C60.8313 104.197 62.1818 108.015 62.1818 111.996C62.1818 113.323 62.632 114.596 63.4333 115.534C64.2346 116.473 65.3214 117 66.4545 117C67.5877 117 68.6745 116.473 69.4758 115.534C70.2771 114.596 70.7273 113.323 70.7273 111.996C70.7189 107.758 69.7887 103.591 68.0245 99.8898C66.2603 96.1885 63.7202 93.0744 60.6436 90.8411ZM49.3636 86.9783C48.096 86.9783 46.8569 86.5381 45.8029 85.7134C44.749 84.8887 43.9275 83.7165 43.4424 82.3451C42.9573 80.9736 42.8304 79.4645 43.0777 78.0086C43.325 76.5527 43.9354 75.2154 44.8317 74.1657C45.7281 73.1161 46.87 72.4013 48.1133 72.1117C49.3565 71.8221 50.6452 71.9707 51.8163 72.5388C52.9874 73.1068 53.9884 74.0688 54.6926 75.3031C55.3968 76.5373 55.7727 77.9884 55.7727 79.4729C55.7705 81.4626 55.0945 83.3701 53.8931 84.7771C52.6916 86.184 51.0627 86.9756 49.3636 86.9783Z" fill="#501F6A"/>
</svg>
