<svg width="150" height="150" viewBox="0 0 150 150" fill="none" xmlns="http://www.w3.org/2000/svg">
<circle cx="75" cy="75" r="75" fill="#F2E7F8"/>
<path d="M48.3253 71.046H49.27C49.0427 69.0519 49.1352 67.0351 49.5443 65.0691C48.3819 65.2873 47.1805 65.1836 46.0749 64.7696C44.9693 64.3556 44.0031 63.6477 43.2849 62.7253C42.5666 61.8029 42.1246 60.7025 42.0085 59.5475C41.8924 58.3924 42.1067 57.2285 42.6274 56.1863C43.1482 55.1441 43.9548 54.2648 44.9567 53.647C45.9586 53.0293 47.1162 52.6975 48.2996 52.6889C49.483 52.6803 50.6455 52.9953 51.6566 53.5984C52.6677 54.2016 53.4875 55.0691 54.0239 56.1037C55.3824 54.567 56.9758 53.2464 58.7472 52.1888C57.5651 50.4177 55.9341 48.978 54.0141 48.0108C52.0941 47.0435 49.9509 46.5819 47.7943 46.671C45.6377 46.7601 43.5417 47.397 41.7115 48.5192C39.8813 49.6414 38.3796 51.2106 37.3536 53.0729C36.3276 54.9353 35.8123 57.0271 35.8583 59.1434C35.9043 61.2597 36.51 63.3281 37.616 65.1459C38.722 66.9637 40.2904 68.4687 42.1677 69.5134C44.045 70.5581 46.1668 71.1068 48.3253 71.1058V71.046Z" fill="#501F6A"/>
<path d="M54.1461 81.7151C52.4188 79.7956 51.0934 77.5617 50.2455 75.1404H48.3257C44.7078 75.0122 41.1016 75.6145 37.7309 76.91C34.3602 78.2055 31.297 80.1665 28.7314 82.6714L28 83.5081V104.427H34.0947V85.8093C38.0889 82.5735 43.1473 80.8739 48.3257 81.0277C50.2868 81.029 52.2408 81.2597 54.1461 81.7151Z" fill="#501F6A"/>
<path d="M110.059 82.5506C107.527 80.0694 104.504 78.1237 101.176 76.8335C97.8477 75.5433 94.285 74.9362 90.7081 75.0495C89.7329 75.0495 88.8797 75.0495 87.9655 75.2288C87.0722 77.7201 85.6727 80.0076 83.8516 81.9529C86.0796 81.3218 88.389 81.0098 90.7081 81.0264C95.85 80.8614 100.877 82.5401 104.848 85.7482V104.486H110.942V83.3873L110.059 82.5506Z" fill="#501F6A"/>
<path d="M69.6831 86.4657C65.6998 86.328 61.7294 86.9824 58.011 88.3897C54.2926 89.797 50.9032 91.9279 48.047 94.6541L47.2852 95.4909V117.396C47.297 118.015 47.4336 118.625 47.687 119.192C47.9403 119.759 48.3056 120.271 48.7616 120.699C49.2176 121.126 49.7554 121.462 50.3441 121.685C50.9327 121.908 51.5605 122.014 52.1914 121.999H87.1443C87.7751 122.014 88.4029 121.908 88.9916 121.685C89.5802 121.462 90.118 121.126 90.574 120.699C91.0301 120.271 91.3953 119.759 91.6487 119.192C91.9021 118.625 92.0386 118.015 92.0505 117.396V95.4311L91.2887 94.5943C88.4424 91.8668 85.0576 89.7388 81.3422 88.341C77.6268 86.9431 73.6592 86.305 69.6831 86.4657ZM85.9254 115.992H53.3189V97.8816C57.9246 94.1896 63.7375 92.2576 69.6831 92.4426C75.5827 92.2481 81.3539 94.1595 85.9254 97.8219V115.992Z" fill="#501F6A"/>
<path d="M76.3263 70.1481C76.0769 71.5258 75.4317 72.8052 74.4665 73.8358C73.5013 74.8664 72.2562 75.6055 70.8776 75.9662C69.4989 76.3269 68.0439 76.2942 66.6835 75.872C65.3231 75.4498 64.1138 74.6557 63.1978 73.5828C62.2817 72.51 61.6969 71.203 61.512 69.8155C61.3271 68.4279 61.5499 67.0175 62.1542 65.7498C62.7584 64.4822 63.719 63.4099 64.9231 62.6592C66.1272 61.9084 67.5248 61.5102 68.9517 61.5114C70.0079 61.5355 71.0468 61.78 71.9991 62.2286C71.8494 60.1548 72.3038 58.082 73.3094 56.2517C71.8643 55.7314 70.3387 55.4585 68.7994 55.4448C66.2625 55.4552 63.7789 56.1601 61.6286 57.4801C59.4782 58.8001 57.7465 60.6829 56.6285 62.9161C55.5104 65.1494 55.0506 67.6445 55.3008 70.1203C55.5509 72.5961 56.5011 74.9542 58.0442 76.9288C59.5874 78.9035 61.6622 80.4164 64.0349 81.2969C66.4076 82.1774 68.984 82.3907 71.4736 81.9126C73.9632 81.4345 76.2672 80.2841 78.126 78.5909C79.9849 76.8978 81.3246 74.7293 81.9943 72.3296C79.9363 72.1275 77.9751 71.3726 76.3263 70.1481Z" fill="#501F6A"/>
<path d="M97.3579 29.8945L79.9272 59.5102C79.5934 60.089 79.4192 60.7432 79.4219 61.4082C79.4246 62.0732 79.6039 62.726 79.9424 63.3022C80.2808 63.8785 80.7665 64.3582 81.3517 64.6942C81.9368 65.0302 82.6012 65.2108 83.2792 65.2182H118.141C118.819 65.2108 119.483 65.0302 120.068 64.6942C120.653 64.3582 121.139 63.8785 121.478 63.3022C121.816 62.726 121.995 62.0732 121.998 61.4082C122.001 60.7432 121.827 60.089 121.493 59.5102L104.093 29.8945C103.749 29.3179 103.257 28.8397 102.666 28.5073C102.076 28.1749 101.406 28 100.725 28C100.044 28 99.3749 28.1749 98.7842 28.5073C98.1934 28.8397 97.7017 29.3179 97.3579 29.8945Z" fill="#501F6A"/>
</svg>
