<svg width="58" height="55" viewBox="0 0 58 55" fill="none" xmlns="http://www.w3.org/2000/svg">
<path d="M17.8694 27.7143C14.615 27.8147 11.9531 29.1004 9.88393 31.5714H5.84598C4.19866 31.5714 2.8125 31.1696 1.6875 30.3661C0.5625 29.5424 0 28.3471 0 26.7801C0 19.6886 1.24554 16.1429 3.73661 16.1429C3.85714 16.1429 4.28906 16.3538 5.03237 16.7757C5.79576 17.1975 6.78013 17.6295 7.98549 18.0714C9.19085 18.4933 10.3862 18.7042 11.5714 18.7042C12.9174 18.7042 14.2533 18.4732 15.5792 18.0112C15.4788 18.7545 15.4286 19.4174 15.4286 20C15.4286 22.7924 16.2422 25.3638 17.8694 27.7143ZM50.1429 46.9096C50.1429 49.3203 49.4096 51.2188 47.9431 52.6049C46.4766 54.0112 44.5279 54.7143 42.0971 54.7143H15.76C13.3292 54.7143 11.3806 54.0112 9.91406 52.6049C8.44755 51.2188 7.71429 49.3203 7.71429 46.9096C7.71429 45.8449 7.74442 44.8103 7.80469 43.8058C7.88504 42.7812 8.02567 41.6864 8.22656 40.5212C8.44754 39.3359 8.71875 38.2411 9.04018 37.2366C9.36161 36.2321 9.79353 35.2578 10.3359 34.3136C10.8783 33.3493 11.5011 32.5357 12.2042 31.8728C12.9074 31.1897 13.7612 30.6473 14.7656 30.2455C15.7902 29.8437 16.9152 29.6429 18.1406 29.6429C18.3415 29.6429 18.7734 29.8638 19.4364 30.3058C20.0993 30.7277 20.8326 31.2098 21.6362 31.7522C22.4397 32.2746 23.5145 32.7567 24.8605 33.1987C26.2065 33.6205 27.5625 33.8315 28.9286 33.8315C30.2946 33.8315 31.6507 33.6205 32.9967 33.1987C34.3426 32.7567 35.4174 32.2746 36.221 31.7522C37.0246 31.2098 37.7578 30.7277 38.4208 30.3058C39.0837 29.8638 39.5156 29.6429 39.7165 29.6429C40.942 29.6429 42.0569 29.8437 43.0614 30.2455C44.0859 30.6473 44.9498 31.1897 45.6529 31.8728C46.356 32.5357 46.9788 33.3493 47.5212 34.3136C48.0636 35.2578 48.4955 36.2321 48.817 37.2366C49.1384 38.2411 49.3996 39.3359 49.6004 40.5212C49.8214 41.6864 49.9621 42.7812 50.0223 43.8058C50.1027 44.8103 50.1429 45.8449 50.1429 46.9096ZM17.0257 2.97433C18.5324 4.48102 19.2857 6.2991 19.2857 8.42857C19.2857 10.558 18.5324 12.3761 17.0257 13.8828C15.519 15.3895 13.7009 16.1429 11.5714 16.1429C9.44196 16.1429 7.62388 15.3895 6.11719 13.8828C4.61049 12.3761 3.85714 10.558 3.85714 8.42857C3.85714 6.2991 4.61049 4.48102 6.11719 2.97433C7.62388 1.46763 9.44196 0.714282 11.5714 0.714282C13.7009 0.714282 15.519 1.46763 17.0257 2.97433ZM37.0949 11.8337C39.365 14.0837 40.5 16.8058 40.5 20C40.5 23.1942 39.365 25.9263 37.0949 28.1964C34.8449 30.4464 32.1228 31.5714 28.9286 31.5714C25.7344 31.5714 23.0022 30.4464 20.7321 28.1964C18.4821 25.9263 17.3571 23.1942 17.3571 20C17.3571 16.8058 18.4821 14.0837 20.7321 11.8337C23.0022 9.56361 25.7344 8.42857 28.9286 8.42857C32.1228 8.42857 34.8449 9.56361 37.0949 11.8337ZM57.8571 26.7801C57.8571 28.3471 57.2946 29.5424 56.1696 30.3661C55.0446 31.1696 53.6585 31.5714 52.0112 31.5714H47.9732C45.904 29.1004 43.2422 27.8147 39.9877 27.7143C41.615 25.3638 42.4286 22.7924 42.4286 20C42.4286 19.4174 42.3783 18.7545 42.2779 18.0112C43.6038 18.4732 44.9397 18.7042 46.2857 18.7042C47.471 18.7042 48.6663 18.4933 49.8717 18.0714C51.077 17.6295 52.0513 17.1975 52.7946 16.7757C53.558 16.3538 54 16.1429 54.1205 16.1429C56.6116 16.1429 57.8571 19.6886 57.8571 26.7801ZM51.74 2.97433C53.2467 4.48102 54 6.2991 54 8.42857C54 10.558 53.2467 12.3761 51.74 13.8828C50.2333 15.3895 48.4152 16.1429 46.2857 16.1429C44.1563 16.1429 42.3382 15.3895 40.8315 13.8828C39.3248 12.3761 38.5714 10.558 38.5714 8.42857C38.5714 6.2991 39.3248 4.48102 40.8315 2.97433C42.3382 1.46763 44.1563 0.714282 46.2857 0.714282C48.4152 0.714282 50.2333 1.46763 51.74 2.97433Z" fill="#99811D"/>
</svg>
