<svg width="14" height="18" viewBox="0 0 14 18" fill="none" xmlns="http://www.w3.org/2000/svg">
<path d="M6.04688 17.3984C6.36328 17.8906 7.10156 17.8906 7.41797 17.3984C12.5508 10.0156 13.5 9.24219 13.5 6.5C13.5 2.77344 10.4766 -0.25 6.75 -0.25C2.98828 -0.25 0 2.77344 0 6.5C0 9.24219 0.914062 10.0156 6.04688 17.3984ZM6.75 9.3125C5.16797 9.3125 3.9375 8.08203 3.9375 6.5C3.9375 4.95312 5.16797 3.6875 6.75 3.6875C8.29688 3.6875 9.5625 4.95312 9.5625 6.5C9.5625 8.08203 8.29688 9.3125 6.75 9.3125Z" fill="white"/>
</svg>
