<svg width="30" height="26" viewBox="0 0 30 26" fill="none" xmlns="http://www.w3.org/2000/svg">
<path d="M29.9665 9.3462L29.1731 7.9407C29.1374 7.87875 29.079 7.83361 29.0106 7.81517C28.9423 7.79672 28.8695 7.80646 28.8081 7.84225L27.1107 8.84715L24.4893 1.50734C24.3509 1.06938 24.0788 0.687349 23.7123 0.416413C23.3458 0.145477 22.9039 -0.00034516 22.4504 6.13501e-07H7.9437C6.78196 6.13501e-07 5.75079 0.760461 5.39256 1.88418L2.89499 8.85054L1.19423 7.84565C1.13291 7.80985 1.06012 7.80012 0.991746 7.81856C0.923373 7.83701 0.864975 7.88214 0.829304 7.9441L0.0358394 9.3462C-0.0378156 9.47521 0.00570788 9.63816 0.13293 9.71285L2.15509 10.9079L1.66964 12.2658C1.62946 12.3745 1.60938 12.4899 1.60938 12.6053V24.4264C1.60938 24.9594 2.00444 25.3906 2.48989 25.3906H4.7531C5.1649 25.3906 5.52313 25.0748 5.61018 24.6335L5.86797 23.3536H24.1344L24.3922 24.6335C24.4826 25.0748 24.8375 25.3906 25.2493 25.3906H27.5125C27.9979 25.3906 28.393 24.9594 28.393 24.4264V12.6053C28.393 12.4899 28.3729 12.3745 28.3327 12.2658L27.8473 10.9079L29.8661 9.71285C29.9269 9.67726 29.9714 9.61891 29.9902 9.55034C30.009 9.48178 30.0005 9.40847 29.9665 9.3462ZM6.69827 16.394C5.95837 16.394 5.35908 15.7864 5.35908 15.0361C5.35908 14.2858 5.95837 13.6781 6.69827 13.6781C7.43816 13.6781 8.03745 14.2858 8.03745 15.0361C8.03745 15.7864 7.43816 16.394 6.69827 16.394ZM19.6883 18.9402C19.6883 19.0896 19.5678 19.2118 19.4205 19.2118H10.5819C10.4346 19.2118 10.3141 19.0896 10.3141 18.9402V16.0885C10.3141 15.9391 10.4346 15.8169 10.5819 15.8169H11.9211C12.0684 15.8169 12.1889 15.9391 12.1889 16.0885V17.3107H17.8135V16.0885C17.8135 15.9391 17.934 15.8169 18.0813 15.8169H19.4205C19.5678 15.8169 19.6883 15.9391 19.6883 16.0885V18.9402ZM23.3041 16.394C22.5642 16.394 21.9649 15.7864 21.9649 15.0361C21.9649 14.2858 22.5642 13.6781 23.3041 13.6781C24.044 13.6781 24.6433 14.2858 24.6433 15.0361C24.6433 15.7864 24.044 16.394 23.3041 16.394ZM5.22517 9.50237L7.65913 2.71593L7.67587 2.6718L7.68926 2.62766C7.72609 2.51563 7.82653 2.44094 7.9437 2.44094H22.2595L24.7839 9.50237H5.22517Z" fill="#4E1D69" fill-opacity="0.8"/>
</svg>
