<svg width="1440" height="753" viewBox="0 0 1440 753" fill="none" xmlns="http://www.w3.org/2000/svg">
<g opacity="0.96">
<rect width="1440" height="753" fill="url(#paint0_linear)"/>
<mask id="mask0" mask-type="alpha" maskUnits="userSpaceOnUse" x="0" y="0" width="1440" height="753">
<rect width="1440" height="753" fill="white"/>
</mask>
<g mask="url(#mask0)">
<rect width="1440" height="753" fill="url(#paint1_radial)"/>
<rect opacity="0.1" x="320" y="208.868" width="20" height="17.9286" rx="8.96429" fill="#99811D"/>
<rect opacity="0.1" x="514" y="-6.27539" width="20" height="17.9286" rx="8.96429" fill="#99811D"/>
<rect opacity="0.1" x="88" y="520.825" width="20" height="17.9286" rx="8.96429" fill="#99811D"/>
<rect opacity="0.1" x="320" y="664.253" width="20" height="17.9286" rx="8.96429" fill="#99811D"/>
<rect opacity="0.1" x="563" y="655.289" width="20" height="17.9286" rx="8.96429" fill="#99811D"/>
<rect opacity="0.1" x="1333" y="744.036" width="20" height="17.9286" rx="8.96429" fill="#99811D"/>
<rect opacity="0.1" x="771" y="376.5" width="20" height="17.9286" rx="8.96429" fill="#99811D"/>
<rect opacity="0.1" x="1235" y="520.825" width="20" height="17.9286" rx="8.96429" fill="#99811D"/>
<rect opacity="0.1" x="1043" y="682.182" width="20" height="17.9286" rx="8.96429" fill="#99811D"/>
<rect opacity="0.1" x="1063" y="251" width="20" height="17.9286" rx="8.96429" fill="#99811D"/>
<rect opacity="0.1" x="1431" y="188.25" width="20" height="17.9286" rx="8.96429" fill="#99811D"/>
<rect opacity="0.1" x="1280" y="113.847" width="20" height="17.9286" rx="8.96429" fill="#99811D"/>
<rect opacity="0.1" x="1185" y="76.1968" width="10" height="8.96429" rx="4.48214" fill="#99811D"/>
<rect opacity="0.1" x="849" y="179.286" width="10" height="8.96429" rx="4.48214" fill="#99811D"/>
<rect opacity="0.1" x="726" y="385.464" width="10" height="8.96429" rx="4.48214" fill="#99811D"/>
<rect opacity="0.1" x="363" y="216.04" width="10" height="8.96429" rx="4.48214" fill="#99811D"/>
<rect opacity="0.1" x="176" y="216.04" width="10" height="8.96429" rx="4.48214" fill="#99811D"/>
<rect opacity="0.1" x="736" y="659.771" width="10" height="8.96429" rx="4.48214" fill="#99811D"/>
<rect opacity="0.1" x="335" y="493.932" width="10" height="8.96429" rx="4.48214" fill="#99811D"/>
<rect opacity="0.1" x="270" y="638.257" width="10" height="8.96429" rx="4.48214" fill="#99811D"/>
<rect opacity="0.1" x="934" y="549.511" width="10" height="8.96429" rx="4.48214" fill="#99811D"/>
<rect opacity="0.1" x="1353" y="708.179" width="10" height="8.96429" rx="4.48214" fill="#99811D"/>
<rect width="436.829" height="18.9925" rx="9.49627" transform="matrix(0.744615 0.667494 -0.744615 0.667494 132.704 -155.979)" fill="url(#paint2_linear)"/>
<rect opacity="0.2" width="189.925" height="18.9925" rx="9.49627" transform="matrix(0.744615 0.667494 -0.744615 0.667494 112.142 354.089)" fill="url(#paint3_linear)"/>
<rect opacity="0.2" width="189.925" height="18.9925" rx="9.49627" transform="matrix(0.744615 0.667494 -0.744615 0.667494 -53.8579 67.2319)" fill="url(#paint4_linear)"/>
<rect opacity="0.2" width="379.851" height="9.49627" rx="4.74814" transform="matrix(0.744615 0.667494 -0.744615 0.667494 945.607 340.227)" fill="url(#paint5_linear)"/>
<rect opacity="0.2" width="227.911" height="9.49627" rx="4.74814" transform="matrix(0.744615 0.667494 -0.744615 0.667494 981.175 426.793)" fill="url(#paint6_linear)"/>
<rect opacity="0.2" width="227.911" height="9.49627" rx="4.74814" transform="matrix(0.744615 0.667494 -0.744615 0.667494 1350.07 231.278)" fill="url(#paint7_linear)"/>
<rect opacity="0.2" width="227.911" height="9.49627" rx="4.74814" transform="matrix(0.744615 0.667494 -0.744615 0.667494 105.071 390.843)" fill="url(#paint8_linear)"/>
<rect opacity="0.2" width="284.888" height="18.9925" rx="9.49627" transform="matrix(0.744615 0.667494 -0.744615 0.667494 784.787 5.05957)" fill="url(#paint9_linear)"/>
<rect opacity="0.2" width="189.925" height="9.49627" rx="4.74814" transform="matrix(0.744615 0.667494 -0.744615 0.667494 909.962 85.0635)" fill="url(#paint10_linear)"/>
<rect width="436.829" height="9.49627" rx="4.74814" transform="matrix(0.744615 0.667494 -0.744615 0.667494 222.633 -121.915)" fill="url(#paint11_linear)"/>
<rect width="94.9627" height="4.74814" rx="2.37407" transform="matrix(0.744615 0.667494 -0.744615 0.667494 428.098 11.6538)" fill="url(#paint12_linear)"/>
<rect opacity="0.1" width="189.925" height="18.9925" rx="9.49627" transform="matrix(0.744615 0.667494 -0.744615 0.667494 1126.14 297.614)" fill="url(#paint13_linear)"/>
<rect opacity="0.1" width="189.925" height="18.9925" rx="9.49627" transform="matrix(0.744615 0.667494 -0.744615 0.667494 776.142 642.739)" fill="url(#paint14_linear)"/>
<rect opacity="0.1" width="189.925" height="18.9925" rx="9.49627" transform="matrix(0.744615 0.667494 -0.744615 0.667494 1181.14 -33.168)" fill="url(#paint15_linear)"/>
</g>
</g>
<defs>
<linearGradient id="paint0_linear" x1="-720" y1="376.5" x2="-101.587" y2="1559.12" gradientUnits="userSpaceOnUse">
<stop stop-color="#3F1654"/>
<stop offset="1" stop-color="#2F0D41"/>
</linearGradient>
<radialGradient id="paint1_radial" cx="0" cy="0" r="1" gradientUnits="userSpaceOnUse" gradientTransform="translate(981.297 300.542) rotate(33.5998) scale(485.789 460.73)">
<stop stop-color="#501F6A"/>
<stop offset="1" stop-color="#501F6A" stop-opacity="0.01"/>
</radialGradient>
<linearGradient id="paint2_linear" x1="436.829" y1="9.49627" x2="0" y2="9.49627" gradientUnits="userSpaceOnUse">
<stop stop-color="#99811D"/>
<stop offset="1" stop-color="#332B7A" stop-opacity="0.01"/>
</linearGradient>
<linearGradient id="paint3_linear" x1="189.925" y1="9.49627" x2="0" y2="9.49627" gradientUnits="userSpaceOnUse">
<stop stop-color="#99811D"/>
<stop offset="1" stop-color="#332B7A" stop-opacity="0.01"/>
</linearGradient>
<linearGradient id="paint4_linear" x1="189.925" y1="9.49627" x2="0" y2="9.49627" gradientUnits="userSpaceOnUse">
<stop stop-color="#99811D"/>
<stop offset="1" stop-color="#332B7A" stop-opacity="0.01"/>
</linearGradient>
<linearGradient id="paint5_linear" x1="379.851" y1="4.74814" x2="0" y2="4.74814" gradientUnits="userSpaceOnUse">
<stop stop-color="#99811D"/>
<stop offset="1" stop-color="#332B7A" stop-opacity="0.01"/>
</linearGradient>
<linearGradient id="paint6_linear" x1="227.911" y1="4.74814" x2="0" y2="4.74814" gradientUnits="userSpaceOnUse">
<stop stop-color="#99811D"/>
<stop offset="1" stop-color="#332B7A" stop-opacity="0.01"/>
</linearGradient>
<linearGradient id="paint7_linear" x1="227.911" y1="4.74814" x2="0" y2="4.74814" gradientUnits="userSpaceOnUse">
<stop stop-color="#99811D"/>
<stop offset="1" stop-color="#332B7A" stop-opacity="0.01"/>
</linearGradient>
<linearGradient id="paint8_linear" x1="227.911" y1="4.74814" x2="0" y2="4.74814" gradientUnits="userSpaceOnUse">
<stop stop-color="#99811D"/>
<stop offset="1" stop-color="#332B7A" stop-opacity="0.01"/>
</linearGradient>
<linearGradient id="paint9_linear" x1="284.888" y1="9.49627" x2="0" y2="9.49627" gradientUnits="userSpaceOnUse">
<stop stop-color="#99811D"/>
<stop offset="1" stop-color="#332B7A" stop-opacity="0.01"/>
</linearGradient>
<linearGradient id="paint10_linear" x1="189.925" y1="4.74814" x2="0" y2="4.74814" gradientUnits="userSpaceOnUse">
<stop stop-color="#99811D"/>
<stop offset="1" stop-color="#332B7A" stop-opacity="0.01"/>
</linearGradient>
<linearGradient id="paint11_linear" x1="436.829" y1="4.74814" x2="0" y2="4.74814" gradientUnits="userSpaceOnUse">
<stop stop-color="#501F6A"/>
<stop offset="1" stop-color="#501F6A" stop-opacity="0.01"/>
</linearGradient>
<linearGradient id="paint12_linear" x1="94.9627" y1="2.37407" x2="0" y2="2.37407" gradientUnits="userSpaceOnUse">
<stop stop-color="#501F6A"/>
<stop offset="1" stop-color="#501F6A" stop-opacity="0.01"/>
</linearGradient>
<linearGradient id="paint13_linear" x1="189.925" y1="9.49627" x2="0" y2="9.49627" gradientUnits="userSpaceOnUse">
<stop stop-color="#501F6A"/>
<stop offset="1" stop-color="#501F6A" stop-opacity="0.01"/>
</linearGradient>
<linearGradient id="paint14_linear" x1="189.925" y1="9.49627" x2="0" y2="9.49627" gradientUnits="userSpaceOnUse">
<stop stop-color="#501F6A"/>
<stop offset="1" stop-color="#501F6A" stop-opacity="0.01"/>
</linearGradient>
<linearGradient id="paint15_linear" x1="189.925" y1="9.49627" x2="0" y2="9.49627" gradientUnits="userSpaceOnUse">
<stop stop-color="#501F6A"/>
<stop offset="1" stop-color="#501F6A" stop-opacity="0.01"/>
</linearGradient>
</defs>
</svg>
